<?xml version="1.0" encoding="UTF-8" standalone="no"?><!DOCTYPE svg PUBLIC "-//W3C//DTD SVG 1.1//EN" "http://www.w3.org/Graphics/SVG/1.1/DTD/svg11.dtd"><svg width="100%" height="100%" viewBox="0 0 2134 2134" version="1.1" xmlns="http://www.w3.org/2000/svg" xmlns:xlink="http://www.w3.org/1999/xlink" xml:space="preserve" xmlns:serif="http://www.serif.com/" style="fill-rule:evenodd;clip-rule:evenodd;stroke-linejoin:round;stroke-miterlimit:2;"><path d="M851.823,636.979c-32.471,0 -58.594,26.123 -58.594,58.594l0,742.187c0,20.508 -3.418,40.284 -10.01,58.594l732.666,0c32.471,0 58.594,-26.123 58.594,-58.594l0,-742.187c0,-32.471 -26.123,-58.594 -58.594,-58.594l-664.062,0Zm-234.375,976.563c-97.168,-0 -175.781,-78.614 -175.781,-175.782l-0,-722.656c-0,-32.471 26.123,-58.594 58.593,-58.594c32.471,0 58.594,26.123 58.594,58.594l0,722.656c0,32.471 26.123,58.594 58.594,58.594c32.471,0 58.594,-26.123 58.594,-58.594l-0,-742.187c-0,-97.168 78.613,-175.781 175.781,-175.781l664.062,-0c97.168,-0 175.782,78.613 175.782,175.781l-0,742.187c-0,97.168 -78.614,175.782 -175.782,175.782l-898.437,-0Zm253.906,-839.844c0,-32.471 26.123,-58.594 58.594,-58.594l234.375,0c32.471,0 58.594,26.123 58.594,58.594l-0,195.312c-0,32.471 -26.123,58.594 -58.594,58.594l-234.375,0c-32.471,0 -58.594,-26.123 -58.594,-58.594l0,-195.312Zm488.281,-58.594l78.125,0c32.471,0 58.594,26.123 58.594,58.594c0,32.471 -26.123,58.594 -58.594,58.594l-78.125,-0c-32.47,-0 -58.593,-26.123 -58.593,-58.594c-0,-32.471 26.123,-58.594 58.593,-58.594Zm0,195.313l78.125,-0c32.471,-0 58.594,26.123 58.594,58.593c0,32.471 -26.123,58.594 -58.594,58.594l-78.125,0c-32.47,0 -58.593,-26.123 -58.593,-58.594c-0,-32.47 26.123,-58.593 58.593,-58.593Zm-429.687,195.312l507.812,0c32.471,0 58.594,26.123 58.594,58.594c0,32.471 -26.123,58.594 -58.594,58.594l-507.812,-0c-32.471,-0 -58.594,-26.123 -58.594,-58.594c0,-32.471 26.123,-58.594 58.594,-58.594Zm-0,195.313l507.812,-0c32.471,-0 58.594,26.123 58.594,58.593c0,32.471 -26.123,58.594 -58.594,58.594l-507.812,0c-32.471,0 -58.594,-26.123 -58.594,-58.594c0,-32.47 26.123,-58.593 58.594,-58.593Z" style="fill-rule:nonzero;"/></svg>