<?xml version="1.0" encoding="UTF-8" standalone="no"?><!DOCTYPE svg PUBLIC "-//W3C//DTD SVG 1.1//EN" "http://www.w3.org/Graphics/SVG/1.1/DTD/svg11.dtd"><svg width="100%" height="100%" viewBox="0 0 2134 2134" version="1.1" xmlns="http://www.w3.org/2000/svg" xmlns:xlink="http://www.w3.org/1999/xlink" xml:space="preserve" xmlns:serif="http://www.serif.com/" style="fill-rule:evenodd;clip-rule:evenodd;stroke-linejoin:round;stroke-miterlimit:2;"><path d="M557.031,769.531c-12.76,20.834 -19.531,44.662 -19.531,69.141c-13.021,4.557 -27.083,7.161 -41.667,7.161c-69.01,0 -125,-55.989 -125,-125l0,-375c-23.047,0 -41.666,-18.619 -41.666,-41.666c-0,-23.047 18.619,-41.667 41.666,-41.667l250,-0c23.047,-0 41.667,18.62 41.667,41.667c-0,23.047 -18.62,41.666 -41.667,41.666l0,320.183l-63.802,103.645l0,-0.13Zm-102.864,-423.698l-0,125l83.333,0l0,-125l-83.333,0Zm291.666,-83.333l250,-0c23.047,-0 41.667,18.62 41.667,41.667c0,23.047 -18.62,41.666 -41.667,41.666l0,196.485l153.256,249.088c8.724,14.193 13.411,30.599 13.411,47.396c0,49.87 -40.495,90.365 -90.365,90.365l-402.604,-0c-49.87,-0 -90.364,-40.495 -90.364,-90.365c-0,-16.667 4.687,-33.073 13.411,-47.396l153.255,-249.088l0,-196.485c-23.047,0 -41.666,-18.619 -41.666,-41.666c-0,-23.047 18.619,-41.667 41.666,-41.667Zm83.334,83.333l-0,208.334c-0,7.682 -2.084,15.234 -6.12,21.875l-63.542,103.125l222.656,-0l-63.541,-103.125c-4.037,-6.511 -6.12,-14.063 -6.12,-21.875l0,-208.334l-83.333,0Z" style="fill-rule:nonzero;"/><path d="M1405.9,981.951l173.111,461.122l-20.882,5.859c-68.865,19.492 -130.115,58.193 -177.497,112.477c-69.703,-18.249 -141.636,-14.258 -210.024,6.79c-86,26.468 -148.685,67.88 -217.027,124.077l-90.979,-505.685c47.023,-38.86 105.525,-69.907 163.549,-87.765c77.713,-23.918 147.016,-18.024 218.475,20.666c35.903,-69.464 87.148,-113.027 161.274,-137.541Zm540.001,529.125c-48.179,14.828 -92.655,17.741 -142.233,11.449c-73.847,-9.599 -146.618,-6.486 -218.111,15.517c-73.568,22.642 -133.941,67.879 -170.163,136.308c-68.43,-36.222 -143.791,-39.683 -217.359,-17.041c-71.493,22.004 -133.421,60.348 -189.092,109.808c-36.224,31.565 -75.358,55.519 -121.465,69.709l-2.592,0.798l-122.514,-683.703c61.169,-64.765 143.98,-116.34 229.461,-142.648c69.939,-21.526 146.418,-29.184 217.396,-6.791c46.104,-58.428 113.654,-95.097 183.594,-116.622c85.481,-26.308 182.96,-30.221 269.96,-11.058l283.118,634.274Zm-107.845,-59.254l-227.037,-509.181c-66.156,-8.564 -139.364,-1.346 -203.087,18.266c-72.531,22.323 -133.383,66.005 -171.279,132.682c-68.828,-33.831 -143.709,-35.738 -216.242,-13.415c-63.723,19.612 -128.321,54.806 -178.213,99.087l98.554,548.723c77.788,-64.205 137.006,-111.356 235.439,-141.651c70.976,-21.844 139.244,-23.007 210.981,-3.682c48.457,-56.316 105.563,-93.74 176.54,-115.585c98.433,-30.294 173.915,-24.6 274.344,-15.244Z" style="fill-rule:nonzero;"/></svg>