<?xml version="1.0" encoding="UTF-8" standalone="no"?><!DOCTYPE svg PUBLIC "-//W3C//DTD SVG 1.1//EN" "http://www.w3.org/Graphics/SVG/1.1/DTD/svg11.dtd"><svg width="100%" height="100%" viewBox="0 0 13339 18621" version="1.1" xmlns="http://www.w3.org/2000/svg" xmlns:xlink="http://www.w3.org/1999/xlink" xml:space="preserve" xmlns:serif="http://www.serif.com/" style="fill-rule:evenodd;clip-rule:evenodd;stroke-linejoin:round;stroke-miterlimit:2;"><g><g><g><path d="M4097.15,6922.38c-0,-0 179.782,-210.739 243.642,-384.147c63.859,-173.408 99.362,-329.882 109.421,-384.354c10.061,-54.471 45.963,-211.996 47.596,-282.878c1.634,-70.88 25.836,-286.539 25.836,-286.539l15.061,-355.479l-21.344,-272.1l-3.246,-246.682l0.207,-134.22l3.662,-21.76l101.684,-72.393l3.662,-21.76l94.361,-28.876l25.421,-18.098c-0,0 21.83,-41.973 72.602,-32.536c50.771,9.438 206.331,3.838 282.878,47.596c76.546,43.758 377.03,152.943 377.03,152.943c0,-0 400.769,144.853 402.454,134.844c1.684,-10.009 192.176,54.711 192.176,54.711l366.256,84.002l369.916,62.242l243.019,18.513l-253.795,-87.453l-130.559,-21.968l-667.231,-157.019l-739.625,-258.702l-289.993,-138.297l-87.038,-14.645l-112.461,3.453l-235.904,72.186l-72.602,32.537l-25.421,18.097l-43.52,-7.322l-39.858,-29.081l-87.039,-14.646l-68.941,10.776l-43.52,-7.323l-79.716,-58.164l-18.099,-25.421l-115.913,-109.006l-61.618,-32.744l-170.418,-51.05l-362.802,28.459l-315.62,14.021l-311.96,-7.738l-221.26,-14.852l-199.499,-11.191l-616.596,-58.997l-587.516,-98.855l688.991,160.681l282.878,47.596l660.116,66.318l337.381,-10.361l290.2,4.077l315.622,-14.022l87.038,14.645l18.099,25.42l119.575,87.247l36.198,50.843l39.858,29.083l14.437,47.18l39.858,29.083l-32.951,195.838l-29.083,39.858l-32.743,61.618l-21.967,130.559l-29.083,39.859c0,-0 -61.185,180.122 -105.76,362.593c-44.576,182.47 -117.421,418.587 -153.358,645.471c-35.937,226.886 -2.215,259.186 -15.061,355.479c-12.846,96.293 -3.79,385.57 31.912,475.263c35.702,89.693 115.914,109.006 115.914,109.006l14.438,47.182l-58.58,348.156l-69.357,279.217l36.198,50.842l39.858,29.083l43.519,7.322l21.967,-130.559l21.761,3.661l18.099,25.421l-7.323,43.52l14.437,47.181l18.098,25.421l43.52,7.322l29.082,-39.858l32.744,-61.618l29.29,-174.078l-3.453,-112.461l21.967,-130.559l40.066,-105.137l14.645,-87.04l47.181,-14.437l0.002,0.001Z" style="fill:none;stroke:#000;stroke-width:3.27px;"/><g><path d="M4421.09,4400.78c59.555,-34.161 166.293,-89.676 279.823,-121.59" style="fill:none;stroke:#000;stroke-width:87.13px;stroke-miterlimit:1.5;"/><path d="M4700.92,4279.19c11.167,-3.166 22.389,-6.079 33.65,-8.74" style="fill:none;stroke:#000;stroke-width:87.13px;stroke-miterlimit:1.5;"/><path d="M4734.59,4270.45c37.514,-8.823 75.326,-14.584 112.033,-15.812" style="fill:none;stroke:#000;stroke-width:87.13px;stroke-miterlimit:1.5;"/><path d="M4846.61,4254.64c37.571,-1.327 73.953,2.273 107.647,12.335" style="fill:none;stroke:#000;stroke-width:87.13px;stroke-miterlimit:1.5;"/><path d="M4954.26,4266.97c2.175,0.611 4.337,1.299 6.484,1.986c55.556,18.136 107.77,43.519 172.871,75.629" style="fill:none;stroke:#000;stroke-width:87.13px;stroke-miterlimit:1.5;"/><path d="M5133.62,4344.59c3.356,1.622 6.739,3.33 10.174,4.967" style="fill:none;stroke:#000;stroke-width:87.13px;stroke-miterlimit:1.5;"/><path d="M5143.79,4349.56c5.86,2.938 11.839,5.897 17.944,8.878" style="fill:none;stroke:#000;stroke-width:87.13px;stroke-miterlimit:1.5;"/><path d="M5161.74,4358.42c6.769,3.336 13.705,6.7 20.787,10.17" style="fill:none;stroke:#000;stroke-width:87.13px;stroke-miterlimit:1.5;"/><path d="M5182.52,4368.6c49.284,24.076 106.383,51.178 176.467,81.197" style="fill:none;stroke:#000;stroke-width:87.13px;stroke-miterlimit:1.5;"/><path d="M5358.98,4449.79c13.799,5.901 28.091,11.968 42.931,18.126" style="fill:none;stroke:#000;stroke-width:87.13px;stroke-miterlimit:1.5;"/><path d="M5401.91,4467.92c73.014,30.104 159.133,62.983 263.086,98.294" style="fill:none;stroke:#000;stroke-width:87.13px;stroke-miterlimit:1.5;"/><path d="M5665,4566.21c21.015,7.116 42.746,14.433 65.262,21.721" style="fill:none;stroke:#000;stroke-width:87.13px;stroke-miterlimit:1.5;"/><path d="M5730.27,4587.94c35.345,11.561 72.579,23.359 111.86,35.42" style="fill:none;stroke:#000;stroke-width:87.13px;stroke-miterlimit:1.5;"/><path d="M5842.12,4623.36c19.761,6.009 40.024,12.186 60.823,18.37" style="fill:none;stroke:#000;stroke-width:87.13px;stroke-miterlimit:1.5;"/><path d="M5902.95,4641.72c96.663,28.633 204.855,58.716 326.534,89.93" style="fill:none;stroke:#000;stroke-width:87.13px;stroke-miterlimit:1.5;"/><path d="M6229.48,4731.65c10.227,2.616 20.549,5.248 30.967,7.895" style="fill:none;stroke:#000;stroke-width:87.13px;stroke-miterlimit:1.5;"/><path d="M6260.45,4739.56c105.779,26.911 221.498,54.681 348.334,83.346c28.314,6.392 56.094,12.53 83.316,18.494" style="fill:none;stroke:#000;stroke-width:87.13px;stroke-miterlimit:1.5;"/><path d="M6692.1,4841.4c12.694,2.705 25.261,5.389 37.702,8.052" style="fill:none;stroke:#000;stroke-width:87.13px;stroke-miterlimit:1.5;"/><path d="M6729.79,4849.45c193.519,41.266 358.349,70.303 492.292,90.968" style="fill:none;stroke:#000;stroke-width:87.13px;stroke-miterlimit:1.5;"/><path d="M7222.08,4940.42c14.191,2.225 28.038,4.311 41.529,6.336" style="fill:none;stroke:#000;stroke-width:87.13px;stroke-miterlimit:1.5;"/><path d="M7263.62,4946.74c244.925,36.491 374.725,43.767 373.806,49.226c-0.999,5.935 -178.93,-2.197 -466.819,-35.909" style="fill:none;stroke:#000;stroke-width:87.13px;stroke-miterlimit:1.5;"/><path d="M7170.6,4960.07c-11.243,-1.322 -22.651,-2.672 -34.225,-4.05" style="fill:none;stroke:#000;stroke-width:87.13px;stroke-miterlimit:1.5;"/><path d="M7136.38,4956.02c-0.23,-0.039 -0.467,-0.079 -0.71,-0.038" style="fill:none;stroke:#000;stroke-width:87.13px;stroke-miterlimit:1.5;"/><path d="M7135.67,4955.98l-0.079,-0.013" style="fill:none;stroke:#000;stroke-width:87.13px;stroke-miterlimit:1.5;"/><path d="M7135.59,4955.97c-43.093,-5.216 -88.437,-10.974 -135.861,-17.245" style="fill:none;stroke:#000;stroke-width:87.13px;stroke-miterlimit:1.5;"/><path d="M6999.72,4938.72c-13.966,-1.862 -28.115,-3.754 -42.425,-5.756" style="fill:none;stroke:#000;stroke-width:87.13px;stroke-miterlimit:1.5;"/><path d="M6957.31,4932.97c-109.865,-15.067 -229.928,-33.154 -357.844,-54.676c-12.835,-2.16 -25.629,-4.313 -38.387,-6.541" style="fill:none;stroke:#000;stroke-width:87.13px;stroke-miterlimit:1.5;"/><path d="M6561.07,4871.75c-16.089,-2.789 -32.125,-5.649 -48.161,-8.51" style="fill:none;stroke:#000;stroke-width:87.13px;stroke-miterlimit:1.5;"/><path d="M6512.92,4863.23c-152.453,-27.441 -303.398,-59.836 -477.078,-107.204" style="fill:none;stroke:#000;stroke-width:87.13px;stroke-miterlimit:1.5;"/><path d="M6035.83,4756.04c-18.979,-5.147 -38.225,-10.5 -57.782,-15.988" style="fill:none;stroke:#000;stroke-width:87.13px;stroke-miterlimit:1.5;"/><path d="M5978.06,4740.05c-134.162,-38.033 -282.616,-84.98 -455.599,-145.006" style="fill:none;stroke:#000;stroke-width:87.13px;stroke-miterlimit:1.5;"/><path d="M5522.45,4595.05c-15.365,-5.351 -30.922,-10.816 -46.685,-16.316" style="fill:none;stroke:#000;stroke-width:87.13px;stroke-miterlimit:1.5;"/><path d="M5475.78,4578.73c-71.573,-25.224 -147.282,-52.61 -227.813,-82.432c-31.293,-11.612 -61.155,-23.553 -89.774,-35.284" style="fill:none;stroke:#000;stroke-width:87.13px;stroke-miterlimit:1.5;"/><path d="M5158.19,4461c-14.77,-5.983 -29.203,-11.992 -43.346,-17.79" style="fill:none;stroke:#000;stroke-width:87.13px;stroke-miterlimit:1.5;"/><path d="M5114.85,4443.22c-91.381,-37.344 -170.44,-67.978 -245.28,-67.552c-135.883,0.733 -279.927,103.347 -357.604,173.353" style="fill:none;stroke:#000;stroke-width:87.13px;stroke-miterlimit:1.5;"/><g><path d="M4169.41,4358.44c-1.127,-1.328 -2.278,-2.661 -3.452,-3.998" style="fill:none;stroke:#000;stroke-width:87.13px;stroke-miterlimit:1.5;"/></g><g><path d="M3960.18,7426.62c-61.147,20.793 -170.144,37.278 -279.504,-47.192" style="fill:none;stroke:#000;stroke-width:17.41px;stroke-miterlimit:1.5;"/></g><g><path d="M4039.85,6930.18c-16.974,-1.228 -31.993,-8.882 -43.633,-24.51c-53.222,-71.364 -51.311,-81.864 -74.957,-85.842c-32.284,-5.432 -17.772,0.916 -106.992,55.228c-13.78,8.34 -30.587,9.58 -48.025,5.915" style="fill:none;stroke:#000;stroke-width:87.11px;stroke-miterlimit:1.5;"/></g><g><path d="M3766.32,6880.97c-20.9,64.249 -30.55,170.926 -36.731,207.658l-19.412,115.375" style="fill:none;stroke:#000;stroke-width:87.17px;stroke-miterlimit:1.5;"/></g><g><path d="M3710.18,7204l-29.512,175.4" style="fill:none;stroke:#000;stroke-width:87.17px;stroke-miterlimit:1.5;"/></g><g><path d="M3680.67,7379.41l-5.661,33.646c-2.663,15.827 -19.704,68.749 -22.551,85.672c-2.663,15.827 -15.069,50.387 -4.064,72.506c14.15,28.586 77.675,63.535 88.287,55.596c25.149,-18.902 42.269,-119.205 59.604,-160.817c12.865,-31.001 29.135,-12.602 31.651,5.326c9.557,68.452 -26.499,159.426 -4.217,170.136c9.343,4.438 57.355,17.941 81.79,-2.515c19.308,-16.098 34.709,-61.208 37.054,-75.144c6.214,-36.932 12.366,-88 17.628,-137.17" style="fill:none;stroke:#000;stroke-width:87.17px;stroke-miterlimit:1.5;"/></g><g><path d="M3960.2,7426.63c8.308,-77.422 14.5,-150.492 15.806,-158.256c0.855,-5.077 2.247,-11.906 3.954,-20.115" style="fill:none;stroke:#000;stroke-width:87.17px;stroke-miterlimit:1.5;"/></g><g><path d="M3979.96,7248.27c14.25,-66.801 54.286,-226.407 59.949,-318.093" style="fill:none;stroke:#000;stroke-width:87.17px;stroke-miterlimit:1.5;"/></g><path d="M3987.91,7246.01c0,0 -2.694,0.929 -7.928,2.246" style="fill:none;stroke:#000;stroke-width:17.41px;stroke-miterlimit:1.5;"/><path d="M3979.97,7248.26c-27.654,6.901 -125.985,23.147 -269.786,-44.255" style="fill:none;stroke:#000;stroke-width:17.41px;stroke-miterlimit:1.5;"/><path d="M4475.14,5988.31c-96.635,-55.153 -415.148,-209.396 -838.526,-129.291" style="fill:none;stroke:#000;stroke-width:17.41px;stroke-miterlimit:1.5;"/><g><path d="M3766.24,6880.99c-34.039,-7.111 -70.039,-32.859 -89.093,-61.533c-68.076,-102.504 -73.258,-296.702 -78.421,-501.394c-3.437,-140.529 13.148,-295.346 37.783,-459.06" style="fill:none;stroke:#000;stroke-width:87.11px;stroke-miterlimit:1.5;"/></g><g><path d="M3636.51,5858.99c7.565,-50.151 15.869,-101.235 24.563,-152.905c11.916,-70.817 26.101,-142.149 42.115,-213.091" style="fill:none;stroke:#000;stroke-width:87.11px;stroke-miterlimit:1.5;"/></g><g><path d="M3703.19,5493c67.284,-299.5 166.447,-592.902 260.877,-814.035c28.37,-66.503 38.112,-159.006 65.869,-219.266" style="fill:none;stroke:#000;stroke-width:87.11px;stroke-miterlimit:1.5;"/></g><g><path d="M4029.94,4459.7c9.453,-20.704 21.024,-37.552 36.093,-48.361c37.548,-26.717 70.462,-44.938 99.85,-56.918" style="fill:none;stroke:#000;stroke-width:87.11px;stroke-miterlimit:1.5;"/></g><g><path d="M4165.87,4354.41c57.371,-23.382 101.304,-23.15 140.384,-16.574c30.585,5.146 74.741,28.279 114.777,62.924" style="fill:none;stroke:#000;stroke-width:87.11px;stroke-miterlimit:1.5;"/></g><g><path d="M4421.03,4400.77c31.393,27.17 60.144,61.381 77.587,99.629c6.927,15.079 10.897,31.288 13.226,48.605" style="fill:none;stroke:#000;stroke-width:87.11px;stroke-miterlimit:1.5;"/></g><g><path d="M4511.85,4549.01c7.923,59.347 -5.501,130.48 0.865,206.002c21.17,251.486 20.036,545.516 -4.41,888.106" style="fill:none;stroke:#000;stroke-width:87.11px;stroke-miterlimit:1.5;"/></g><g><path d="M4508.31,5643.12c-4.872,67.041 -10.49,135.907 -17.02,206.737c-4.404,46.941 -9.847,93.136 -16.303,138.429" style="fill:none;stroke:#000;stroke-width:87.11px;stroke-miterlimit:1.5;"/></g><g><path d="M4474.98,5988.27c-24.705,174.524 -64.604,335.507 -119.259,473.422c-65.772,165.905 -124.29,329.37 -198.48,405.984c-38.247,39.537 -82.012,65.126 -117.39,62.509" style="fill:none;stroke:#000;stroke-width:87.11px;stroke-miterlimit:1.5;"/></g><path d="M4508.38,5643.12c-164.754,12.393 -480.424,7.855 -805.153,-150.119" style="fill:none;stroke:#000;stroke-width:17.41px;stroke-miterlimit:1.5;"/><path d="M4403.53,6323.29c0,-0 -310.674,-321.922 -797.846,-142.379" style="fill:none;stroke:#000;stroke-width:17.41px;stroke-miterlimit:1.5;"/><path d="M4304.21,6575.09c0,-0 -193.226,-321.121 -700.231,-142.231" style="fill:none;stroke:#000;stroke-width:17.41px;stroke-miterlimit:1.5;"/><path d="M4700.92,4279.19c2.52,-4.051 5.15,-8.084 7.867,-11.939c60.966,-87.138 186.048,-228.662 191.765,-230.386c5.73,-1.802 -123.62,165.774 -157.453,219.886c-2.957,4.71 -5.8,9.277 -8.53,13.699" style="fill:none;stroke:#000;stroke-width:17.41px;stroke-miterlimit:1.5;"/><path d="M4846.61,4254.64c14.962,-3.911 37.258,-7.157 69.318,-9.492c51.062,-3.695 287.933,-91.259 289.001,-73.423c0.445,7.316 -173.084,58.183 -250.672,95.25" style="fill:none;stroke:#000;stroke-width:17.41px;stroke-miterlimit:1.5;"/><path d="M5114.85,4443.22c34.805,74.204 153.638,325.443 102.574,186.257c-35.007,-95.393 -51.552,-144.312 -59.229,-168.468" style="fill:none;stroke:#000;stroke-width:17.41px;stroke-miterlimit:1.5;"/><path d="M5358.98,4449.79c66.687,-25.964 331.826,-128.464 183.298,-58.582c-91.323,42.975 -127.9,64.078 -140.367,76.708" style="fill:none;stroke:#000;stroke-width:17.41px;stroke-miterlimit:1.5;"/><path d="M5133.62,4344.59c98.127,-15.467 381.81,-58.54 257.074,-19.56c-72.869,22.807 -153.824,37.095 -208.169,43.574" style="fill:none;stroke:#000;stroke-width:17.41px;stroke-miterlimit:1.5;"/><path d="M5161.74,4358.42c16.92,-6.022 1.482,-8.131 -17.945,-8.877" style="fill:none;stroke:#000;stroke-width:17.41px;stroke-miterlimit:1.5;"/><path d="M5475.78,4578.73c30.926,64.275 119.042,245.495 83.14,148.893c-24.171,-65.01 -33.194,-107.618 -36.455,-132.578" style="fill:none;stroke:#000;stroke-width:17.41px;stroke-miterlimit:1.5;"/><path d="M5842.12,4623.36c117.503,-14.079 399.809,-46.317 182.605,-4.507c-54.544,10.513 -93.867,17.81 -121.782,22.877" style="fill:none;stroke:#000;stroke-width:17.41px;stroke-miterlimit:1.5;"/><path d="M5665,4566.21c119.004,4.319 350.749,14.101 161.91,19.349c-39.594,1.068 -71.322,1.913 -96.648,2.372" style="fill:none;stroke:#000;stroke-width:17.41px;stroke-miterlimit:1.5;"/><path d="M5978.06,4740.05c93.3,75.748 278.211,224.273 154.485,108.5c-47.169,-44.145 -77.458,-73.326 -96.703,-92.512" style="fill:none;stroke:#000;stroke-width:17.41px;stroke-miterlimit:1.5;"/><path d="M6229.48,4731.65c72.151,-14.955 241.942,-49.364 103.765,-12.077c-31.01,8.372 -54.733,14.876 -72.798,19.972" style="fill:none;stroke:#000;stroke-width:17.41px;stroke-miterlimit:1.5;"/><path d="M6512.92,4863.23c69.175,48.906 187.314,130.703 103.629,58.608c-25.932,-22.345 -43.611,-38.501 -55.468,-50.098" style="fill:none;stroke:#000;stroke-width:17.41px;stroke-miterlimit:1.5;"/><path d="M6692.1,4841.4c72.222,-15.676 237.367,-50.459 102.67,-11.611c-28.44,8.233 -49.538,14.611 -64.968,19.663" style="fill:none;stroke:#000;stroke-width:17.41px;stroke-miterlimit:1.5;"/><path d="M6957.31,4932.97c51.255,53.377 171.056,176.706 98.351,87.176c-35.188,-43.35 -50.447,-67.805 -55.927,-81.42" style="fill:none;stroke:#000;stroke-width:17.41px;stroke-miterlimit:1.5;"/><g><path d="M7135.67,4955.98l-12.643,2.267c0,-0 4.602,-0.854 12.564,-2.28" style="fill:none;stroke:#000;stroke-width:17.41px;stroke-miterlimit:1.5;"/></g><g><path d="M7135.59,4955.97c0.156,-0.055 0.312,-0.11 0.462,-0.085" style="fill:none;stroke:#000;stroke-width:17.41px;stroke-miterlimit:1.5;"/></g><g><path d="M7222.08,4940.42c97.533,-17.113 218.327,-36.821 117.318,-10.855c-30.843,7.912 -55.735,13.487 -75.789,17.191" style="fill:none;stroke:#000;stroke-width:17.41px;stroke-miterlimit:1.5;"/></g><g><path d="M7136.06,4955.88l0.04,0.007" style="fill:none;stroke:#000;stroke-width:17.41px;stroke-miterlimit:1.5;"/></g><g><path d="M7136.1,4955.89c0.103,0.018 0.184,0.113 0.287,0.13" style="fill:none;stroke:#000;stroke-width:17.41px;stroke-miterlimit:1.5;"/></g><g><path d="M7136.38,4956.02c88.283,49.273 216.315,119.147 123.749,57.843c-39.717,-26.292 -68.58,-43.109 -89.524,-53.793" style="fill:none;stroke:#000;stroke-width:17.41px;stroke-miterlimit:1.5;"/></g><g><path d="M7170.6,4960.07c-5.916,-2.948 -11.197,-5.464 -15.913,-7.56" style="fill:none;stroke:#000;stroke-width:17.41px;stroke-miterlimit:1.5;"/></g><g><path d="M7154.7,4952.5l-0.055,-0.01" style="fill:none;stroke:#000;stroke-width:17.41px;stroke-miterlimit:1.5;"/></g><g><path d="M4169.02,4360.7c-45.097,-51.769 -127.789,-139.157 -224.624,-206.468" style="fill:none;stroke:#000;stroke-width:87.13px;stroke-miterlimit:1.5;"/></g><g><path d="M3944.41,4154.23c-9.517,-6.645 -19.169,-13.07 -28.939,-19.271" style="fill:none;stroke:#000;stroke-width:87.13px;stroke-miterlimit:1.5;"/></g><g><path d="M3915.46,4134.97c-32.56,-20.612 -66.406,-38.431 -100.69,-51.604" style="fill:none;stroke:#000;stroke-width:87.13px;stroke-miterlimit:1.5;"/></g><g><path d="M3814.78,4083.36c-35.068,-13.548 -70.625,-22.054 -105.756,-23.571" style="fill:none;stroke:#000;stroke-width:87.13px;stroke-miterlimit:1.5;"/></g><g><path d="M3709.03,4059.78c-2.257,-0.135 -4.525,-0.192 -6.778,-0.246c-58.433,-1.043 -116.078,5.856 -188.103,14.893" style="fill:none;stroke:#000;stroke-width:87.13px;stroke-miterlimit:1.5;"/></g><g><path d="M3514.15,4074.43c-3.702,0.435 -7.457,0.942 -11.239,1.363" style="fill:none;stroke:#000;stroke-width:87.13px;stroke-miterlimit:1.5;"/></g><g><path d="M3502.9,4075.79c-6.499,0.859 -13.117,1.699 -19.862,2.517" style="fill:none;stroke:#000;stroke-width:87.13px;stroke-miterlimit:1.5;"/></g><g><path d="M3483.05,4078.31c-7.488,0.937 -15.143,1.845 -22.969,2.806" style="fill:none;stroke:#000;stroke-width:87.13px;stroke-miterlimit:1.5;"/></g><g><path d="M3460.07,4081.12c-54.45,6.624 -117.275,13.547 -193.323,18.979" style="fill:none;stroke:#000;stroke-width:87.13px;stroke-miterlimit:1.5;"/></g><g><path d="M3266.76,4100.11c-14.971,1.061 -30.462,2.115 -46.498,3.078" style="fill:none;stroke:#000;stroke-width:87.13px;stroke-miterlimit:1.5;"/></g><g><path d="M3220.25,4103.17c-78.846,4.553 -170.983,7.439 -280.767,6.786" style="fill:none;stroke:#000;stroke-width:87.13px;stroke-miterlimit:1.5;"/></g><g><path d="M2939.48,4109.96c-22.187,-0.153 -45.116,-0.349 -68.777,-0.832" style="fill:none;stroke:#000;stroke-width:87.13px;stroke-miterlimit:1.5;"/></g><g><path d="M2870.71,4109.13c-37.182,-0.642 -76.226,-1.678 -117.29,-3.136" style="fill:none;stroke:#000;stroke-width:87.13px;stroke-miterlimit:1.5;"/></g><g><path d="M2753.41,4106c-20.641,-0.789 -41.809,-1.583 -63.485,-2.546" style="fill:none;stroke:#000;stroke-width:87.13px;stroke-miterlimit:1.5;"/></g><g><path d="M2689.94,4103.45c-100.71,-4.578 -212.79,-11.557 -337.986,-21.881" style="fill:none;stroke:#000;stroke-width:87.13px;stroke-miterlimit:1.5;"/></g><g><path d="M2351.95,4081.56c-10.52,-0.875 -21.135,-1.766 -31.844,-2.673" style="fill:none;stroke:#000;stroke-width:87.13px;stroke-miterlimit:1.5;"/></g><g><path d="M2320.11,4078.89c-108.763,-9.187 -227.197,-20.815 -356.43,-35.236c-28.847,-3.226 -57.105,-6.516 -84.781,-9.79" style="fill:none;stroke:#000;stroke-width:87.13px;stroke-miterlimit:1.5;"/></g><g><path d="M1878.9,4033.87c-12.88,-1.597 -25.633,-3.173 -38.261,-4.728" style="fill:none;stroke:#000;stroke-width:87.13px;stroke-miterlimit:1.5;"/></g><g><path d="M1840.64,4029.14c-196.368,-24.334 -361.623,-50.838 -494.952,-75.143" style="fill:none;stroke:#000;stroke-width:87.13px;stroke-miterlimit:1.5;"/></g><g><path d="M1345.68,3954c-14.137,-2.542 -27.905,-5.102 -41.317,-7.603" style="fill:none;stroke:#000;stroke-width:87.13px;stroke-miterlimit:1.5;"/></g><g><path d="M1304.36,3946.4c-243.38,-45.67 -368.414,-81.272 -369.334,-75.813c-0.999,5.935 169.796,56.478 452.868,118.836" style="fill:none;stroke:#000;stroke-width:87.13px;stroke-miterlimit:1.5;"/></g><g><path d="M1387.89,3989.43c11.056,2.43 22.278,4.888 33.666,7.373" style="fill:none;stroke:#000;stroke-width:87.13px;stroke-miterlimit:1.5;"/></g><g><path d="M1421.57,3996.8c0.229,0.039 0.466,0.078 0.683,0.196" style="fill:none;stroke:#000;stroke-width:87.13px;stroke-miterlimit:1.5;"/></g><g><path d="M1422.25,3996.98l0.079,0.014" style="fill:none;stroke:#000;stroke-width:87.13px;stroke-miterlimit:1.5;"/></g><g><path d="M1422.33,3997c42.427,9.172 87.159,18.571 134.024,28.164" style="fill:none;stroke:#000;stroke-width:87.13px;stroke-miterlimit:1.5;"/></g><g><path d="M1556.35,4025.16c13.807,2.812 27.795,5.654 41.972,8.446" style="fill:none;stroke:#000;stroke-width:87.13px;stroke-miterlimit:1.5;"/></g><g><path d="M1598.32,4033.62c108.746,21.714 228.119,43.915 356.035,65.438c12.834,2.16 25.629,4.312 38.413,6.382" style="fill:none;stroke:#000;stroke-width:87.13px;stroke-miterlimit:1.5;"/></g><g><path d="M1992.78,4105.43c16.116,2.63 32.204,5.174 48.293,7.719" style="fill:none;stroke:#000;stroke-width:87.13px;stroke-miterlimit:1.5;"/></g><g><path d="M2041.06,4113.14c153.039,23.96 306.273,42.746 485.892,54.824" style="fill:none;stroke:#000;stroke-width:87.13px;stroke-miterlimit:1.5;"/></g><g><path d="M2526.95,4167.97c19.62,1.348 39.557,2.586 59.833,3.801" style="fill:none;stroke:#000;stroke-width:87.13px;stroke-miterlimit:1.5;"/></g><g><path d="M2586.79,4171.78c139.221,7.966 294.865,12.185 477.968,12.074" style="fill:none;stroke:#000;stroke-width:87.13px;stroke-miterlimit:1.5;"/></g><g><path d="M3064.76,4183.85c16.27,-0.028 32.759,-0.103 49.454,-0.141" style="fill:none;stroke:#000;stroke-width:87.13px;stroke-miterlimit:1.5;"/></g><g><path d="M3114.2,4183.72c75.887,-0.413 156.388,-1.513 242.245,-3.341c33.37,-0.733 65.496,-2.243 96.379,-3.963" style="fill:none;stroke:#000;stroke-width:87.13px;stroke-miterlimit:1.5;"/></g><g><path d="M3452.83,4176.4c15.915,-0.821 31.52,-1.775 46.78,-2.625" style="fill:none;stroke:#000;stroke-width:87.13px;stroke-miterlimit:1.5;"/></g><g><path d="M3499.62,4173.78c98.57,-5.383 183.303,-8.457 253.881,16.437c128.161,45.16 219.878,187.524 270.37,279.094" style="fill:none;stroke:#000;stroke-width:87.13px;stroke-miterlimit:1.5;"/></g><g><path d="M3944.41,4154.23c-1.056,-4.652 -2.223,-9.324 -3.527,-13.855c-29.095,-102.292 -100.975,-276.957 -105.814,-280.456c-4.825,-3.579 62.564,197.101 76.825,259.304c1.252,5.418 2.445,10.664 3.577,15.735" style="fill:none;stroke:#000;stroke-width:17.41px;stroke-miterlimit:1.5;"/></g><g><path d="M3814.78,4083.36c-12.859,-8.591 -32.863,-18.954 -62.395,-31.653c-47.04,-20.201 -242.214,-180.46 -249.059,-163.957c-2.816,6.768 144.512,111.623 205.698,172.04" style="fill:none;stroke:#000;stroke-width:17.41px;stroke-miterlimit:1.5;"/></g><g><path d="M3499.62,4173.78c-57.171,58.729 -251.68,257.245 -157.879,142.434c64.297,-78.685 95.94,-119.495 111.099,-139.809" style="fill:none;stroke:#000;stroke-width:17.41px;stroke-miterlimit:1.5;"/></g><g><path d="M3266.76,4100.11c-54.519,-46.358 -271.514,-229.98 -154.034,-115.34c72.231,70.493 99.888,102.405 107.536,118.419" style="fill:none;stroke:#000;stroke-width:17.41px;stroke-miterlimit:1.5;"/></g><g><path d="M3514.15,4074.43c-87.663,-46.727 -341.628,-180.264 -236.518,-102.61c61.394,45.398 133.216,85.392 182.448,109.296" style="fill:none;stroke:#000;stroke-width:17.41px;stroke-miterlimit:1.5;"/></g><g><path d="M3483.05,4078.31c-14.017,-11.228 1.261,-8.168 19.862,-2.517" style="fill:none;stroke:#000;stroke-width:17.41px;stroke-miterlimit:1.5;"/></g><g><path d="M3114.2,4183.72c-50.258,50.616 -192.828,193.022 -127.289,113.488c44.115,-53.52 66.585,-90.83 77.835,-113.347" style="fill:none;stroke:#000;stroke-width:17.41px;stroke-miterlimit:1.5;"/></g><g><path d="M2753.41,4106c-106.425,-51.756 -362.638,-174.604 -171.075,-64.017c48.099,27.784 82.87,47.548 107.59,61.471" style="fill:none;stroke:#000;stroke-width:17.41px;stroke-miterlimit:1.5;"/></g><g><path d="M2939.48,4109.96c-113.865,-34.862 -336.052,-101.457 -159.327,-34.701c37.064,13.967 66.769,25.149 90.55,33.869" style="fill:none;stroke:#000;stroke-width:17.41px;stroke-miterlimit:1.5;"/></g><g><path d="M2586.79,4171.78c-112.951,41.044 -336.284,120.878 -181.485,51.969c59.019,-26.277 97.19,-43.939 121.653,-55.771" style="fill:none;stroke:#000;stroke-width:17.41px;stroke-miterlimit:1.5;"/></g><g><path d="M2351.95,4081.56c-63.283,-37.743 -212.466,-125.822 -94.099,-45.369c26.563,18.057 46.851,31.968 62.255,42.696" style="fill:none;stroke:#000;stroke-width:17.41px;stroke-miterlimit:1.5;"/></g><g><path d="M2041.06,4113.14c-81.37,23.576 -219.774,62.207 -117.102,21.468c31.816,-12.628 53.81,-22.109 68.809,-29.187" style="fill:none;stroke:#000;stroke-width:17.41px;stroke-miterlimit:1.5;"/></g><g><path d="M1878.9,4033.87c-63.115,-38.446 -207.783,-125.359 -93.216,-44.568c24.179,17.086 42.028,30.016 54.955,39.84" style="fill:none;stroke:#000;stroke-width:17.41px;stroke-miterlimit:1.5;"/></g><g><path d="M1598.32,4033.62c-65.9,33.663 -219.465,110.997 -121.463,50.188c47.436,-29.446 69.858,-47.562 79.491,-58.634" style="fill:none;stroke:#000;stroke-width:17.41px;stroke-miterlimit:1.5;"/></g><g><path d="M1422.25,3996.98l11.205,6.279c-0,-0 -4.07,-2.312 -11.126,-6.265" style="fill:none;stroke:#000;stroke-width:17.41px;stroke-miterlimit:1.5;"/></g><g><path d="M1422.33,3997c-0.129,-0.103 -0.258,-0.206 -0.409,-0.232" style="fill:none;stroke:#000;stroke-width:17.41px;stroke-miterlimit:1.5;"/></g><g><path d="M1345.68,3954c-86.563,-48.088 -194.255,-106.24 -107.307,-48.649c26.556,17.568 48.254,30.983 65.99,41.046" style="fill:none;stroke:#000;stroke-width:17.41px;stroke-miterlimit:1.5;"/></g><g><path d="M1421.91,3996.8l-0.039,-0.006" style="fill:none;stroke:#000;stroke-width:17.41px;stroke-miterlimit:1.5;"/></g><g><path d="M1421.87,3996.78c-0.103,-0.017 -0.211,0.046 -0.314,0.029" style="fill:none;stroke:#000;stroke-width:17.41px;stroke-miterlimit:1.5;"/></g><g><path d="M1421.56,3996.82c-99.548,17.669 -243.394,41.796 -135.865,14.162c46.135,-11.848 78.911,-18.293 102.199,-21.535" style="fill:none;stroke:#000;stroke-width:17.41px;stroke-miterlimit:1.5;"/></g><g><path d="M1387.9,3989.44c6.555,-0.85 12.368,-1.499 17.511,-1.936" style="fill:none;stroke:#000;stroke-width:17.41px;stroke-miterlimit:1.5;"/></g><g><path d="M1405.4,3987.5l0.054,0.009" style="fill:none;stroke:#000;stroke-width:17.41px;stroke-miterlimit:1.5;"/></g><g><path d="M3828.24,7638.59c-0,0 -28.501,51.465 -29.098,340.915" style="fill:none;stroke:#000;stroke-width:52.28px;stroke-miterlimit:1.5;"/></g><g><path d="M3883.62,7653.07c0,-0 -51.064,295.587 34.231,524.473" style="fill:none;stroke:#000;stroke-width:52.28px;stroke-miterlimit:1.5;"/></g><g><path d="M3911.45,7639.26c0,0 91.232,157.929 56.451,448.41" style="fill:none;stroke:#000;stroke-width:52.28px;stroke-miterlimit:1.5;"/></g><g><path d="M3924.38,7625.94c0,0 204.064,155.901 170.29,387.762" style="fill:none;stroke:#000;stroke-width:52.28px;stroke-miterlimit:1.5;"/></g><g><path d="M3854.89,7648.22c0,-0 -79.636,517.418 -10.664,623.321" style="fill:none;stroke:#000;stroke-width:52.28px;stroke-miterlimit:1.5;"/></g><g><path d="M3727.72,7628.62c0,0 -6.464,196.66 -71.607,374.386" style="fill:none;stroke:#000;stroke-width:52.33px;stroke-miterlimit:1.5;"/></g><g><path d="M3711.34,7620.69c-0,0 -64.855,421.226 -118.884,552.983" style="fill:none;stroke:#000;stroke-width:52.33px;stroke-miterlimit:1.5;"/></g><g><path d="M3688.4,7603.48c-0,0 15.713,75.8 -107.294,381.704" style="fill:none;stroke:#000;stroke-width:52.33px;stroke-miterlimit:1.5;"/></g><g><path d="M3657.07,7584.9c0,-0 -60.516,89.357 -126.571,445.087" style="fill:none;stroke:#000;stroke-width:52.33px;stroke-miterlimit:1.5;"/></g><g><path d="M3646.87,7543.2c0,-0 -106.697,120.097 -176.83,436.631" style="fill:none;stroke:#000;stroke-width:52.33px;stroke-miterlimit:1.5;"/></g><g><path d="M3637.51,7547.53c-0,0 -92.783,-71.844 -228.581,334.647" style="fill:none;stroke:#000;stroke-width:52.33px;stroke-miterlimit:1.5;"/></g></g></g><g><path d="M4290.65,4407.12c36.265,6.102 60.753,40.497 54.651,76.762c-6.101,36.264 -40.497,60.753 -76.762,54.651c-36.264,-6.102 -60.753,-40.498 -54.651,-76.762c6.102,-36.265 40.498,-60.753 76.762,-54.651Z" style="stroke:#000;stroke-width:3.26px;"/></g></g><path d="M3014.8,2186.65c-256.191,73.089 -504.695,170.843 -742.021,291.887l111.828,643.032c-222.276,129.228 -429.653,282.528 -618.386,457.132l-581.961,-295.493c-185.324,191.394 -351.657,400.301 -496.667,623.793l418.362,500.967c-127.883,223.053 -230.825,459.503 -306.971,705.081l-651.739,35.077c-64.799,258.413 -104.393,522.499 -118.229,788.554l612.795,224.67c0.777,257.11 29.851,513.354 86.695,764.102l-546.884,356.247c73.089,256.192 170.843,504.695 291.887,742.022l643.032,-111.828c129.228,222.275 282.528,429.653 457.132,618.386l-295.493,581.961c191.394,185.323 400.301,351.656 623.793,496.667l500.967,-418.362c223.053,127.883 459.502,230.826 705.079,306.971l35.077,651.74c258.414,64.799 522.5,104.392 788.555,118.229l224.67,-612.796c257.109,-0.776 513.354,-29.851 764.102,-86.695l356.247,546.885c256.191,-73.09 504.695,-170.843 742.021,-291.888l-111.827,-643.032c222.275,-129.227 429.652,-282.528 618.385,-457.131l581.961,295.492c185.324,-191.393 351.657,-400.301 496.667,-623.793l-418.362,-500.967c127.883,-223.052 230.826,-459.502 306.972,-705.079l651.739,-35.077c64.799,-258.413 104.393,-522.499 118.229,-788.554l-612.795,-224.67c-0.777,-257.11 -29.851,-513.354 -86.695,-764.103l546.884,-356.246c-73.089,-256.192 -170.843,-504.695 -291.887,-742.022l-643.032,111.828c-129.228,-222.275 -282.528,-429.653 -457.131,-618.384l295.492,-581.961c-191.393,-185.324 -400.301,-351.657 -623.792,-496.667l-500.968,418.362c-223.052,-127.883 -459.503,-230.826 -705.08,-306.971l-35.077,-651.74c-258.413,-64.799 -522.499,-104.392 -788.554,-118.229l-224.671,612.796c-257.109,0.776 -513.353,29.851 -764.102,86.695l-356.247,-546.885l0,-0.003Z" style="fill:none;stroke:#000;stroke-width:58.04px;stroke-linecap:round;stroke-miterlimit:1.5;"/><path d="M12480.9,9753.05c-163.442,-210.388 -346.894,-404.435 -547.784,-579.421l-554.802,343.786c-202.861,-157.966 -422.493,-293.125 -654.928,-403.036l56.886,-650.198c-246.74,-100.48 -502.637,-176.805 -764.105,-227.902l-308.579,575.129c-254.666,-35.372 -512.453,-42.607 -768.703,-21.574l-275.835,-591.533c-263.922,36.352 -523.699,98.203 -775.684,184.685l20.327,652.366c-238.235,96.7 -465.101,219.327 -676.503,365.666l-534.646,-374.365c-210.387,163.443 -404.434,346.895 -579.421,547.784l343.787,554.803c-157.967,202.861 -293.126,422.492 -403.036,654.928l-650.2,-56.885c-100.48,246.739 -176.805,502.637 -227.902,764.105l575.129,308.579c-35.372,254.666 -42.607,512.453 -21.574,768.702l-591.532,275.836c36.351,263.922 98.202,523.699 184.684,775.684l652.366,-20.327c96.699,238.233 219.327,465.101 365.666,676.503l-374.365,534.646c163.443,210.387 346.895,404.434 547.784,579.421l554.802,-343.787c202.861,157.966 422.493,293.126 654.929,403.036l-56.886,650.198c246.739,100.481 502.637,176.805 764.105,227.902l308.579,-575.129c254.666,35.373 512.453,42.608 768.702,21.575l275.835,591.532c263.923,-36.352 523.699,-98.202 775.685,-184.684l-20.327,-652.367c238.235,-96.7 465.101,-219.326 676.503,-365.666l534.645,374.365c210.388,-163.442 404.435,-346.894 579.422,-547.784l-343.787,-554.802c157.966,-202.861 293.126,-422.493 403.036,-654.929l650.2,56.886c100.48,-246.74 176.804,-502.638 227.902,-764.105l-575.13,-308.58c35.373,-254.665 42.608,-512.452 21.575,-768.702l591.532,-275.835c-36.352,-263.923 -98.202,-523.699 -184.684,-775.685l-652.367,20.327c-96.699,-238.233 -219.326,-465.1 -365.666,-676.502l374.365,-534.646Z" style="fill:none;stroke:#000;stroke-width:58.04px;stroke-linecap:round;stroke-miterlimit:1.5;"/><g><g><path d="M6834.82,9611.89l44.379,4.42l49.64,3.01l80.72,24.799l83.814,30.137l85.664,29.623l92.373,38.192l146.708,64.387l218.304,103.562l264.306,135.033l74.129,44.609l81.15,48.02l99.417,59.277l145.006,97.627l154.524,108.785l200.459,139.661l234.075,170.85l663.347,517.721l22.671,4.123l20.062,-3.713l16.974,-4.362l23.134,-1.454l16.705,-5.838l19.783,-1.772l19.406,-2.432l20.355,-2.039l19.803,-2.477l28.312,-13.199l19.913,-2.389l19.761,-1.971l28.972,-13.575l19.429,-2.234l19.737,-2.169l28.553,-13.728l39.608,-4.051l28.995,-13.377l39.144,-4.601l28.686,-13.442l28.488,-13.419l49.217,-15.702l38.945,-4.578l39.65,-4.559l30.966,6.384l28.086,8.421l7.746,37.677l6.289,59.941l-1.87,70.22l-4.017,50.68l-3.947,51.275l6.658,58.793l9.361,79.675l2.344,19.517l7.322,24.368l8.114,24.276l13.244,28.709l13.705,28.355l13.068,28.93l13.023,28.533l13.904,28.332l12.736,28.667l4.38,38.968l2.855,20.462l-3.865,15.309l-8.155,11.182l-14.101,6.643l-20.245,2.127l-30.9,-6.692l-30.943,-6.185l-30.812,-6.803l-30.988,-6.581l-30.657,-6.319l-17.064,-1.654l-6.089,3.814l-3.226,9.51l8.768,10.744l11.075,8.971l19.076,20.907l27.741,33.37l46.621,55.203l123.504,116.771l135.3,124.153l79.843,81.214l89.726,89.418l90.987,90.779l79.58,81.546l80.351,81.256l67.667,72.268l79.931,81.104l79.733,81.126l79.912,81.808l123.363,114.678l61.255,61.054l72.306,46.224l52.829,24.459l30.192,5.769l19.825,-2.279l72.545,22.092l72.872,21.452l103.773,28.144l134.475,34.858l487.307,135.309l106.205,47.55l74.255,43.088l18,22.035l4.159,9.967l-0.128,6.744l-1.543,5.802l-3.304,6.205l-4.653,4.954l-5.095,4.604l-5.19,2.906l-6.887,3.002l-8.381,3.976l-10.828,3.656l-16.618,-0.4l-19.913,2.39l-39.784,4.273l-48.443,16.316l-48.382,15.103l-57.109,26.553l-57.307,26.575l-48.599,15.832l-105.114,42.316l-116.981,33.436l-149.654,6.961l-35.722,0.29l-13.283,1.527l-14.687,3.296l-7.374,2.254l-6.532,3.463l-6.353,4.145l-5.248,5.022l-3.864,3.96l-4.016,4.379l-3.33,5.103l-2.645,5.828l-2.751,6.644l0.018,10.644l3.166,15.304l2.696,25.201l5.548,44.76l16.001,139.174l9.402,79.168l5.9,61.793l1.102,17.45l-0.543,31.097l-5.058,25.892l-3.751,16.3l-20.488,111.832l-15.238,101.586l-17.576,112.702l-2.008,138.03l-4.551,14.584l-2.488,6.312l-4.539,5.946l-6.002,3.703l-6.306,-0.681l-6.117,-3.415l-7.074,-5.615l-7.229,-6.099l-6.018,-6.037l-8.517,-8.562l-9.089,-8.296l-18.169,-20.007l-35.634,-46.122l-35.414,-45.946l-48.504,-75.074l-48.866,-94.819l-32.225,-76.745l-28.192,-76.606l-31.686,-97.397l-30.666,-95.505l-44.534,-126.151l-46.569,-145.602l-58.743,-153.645l-12.714,-28.468l-23.857,-38.035l-25.112,-37.589l-36.496,-46.625l-35.405,-38.012l-54.714,-50.457l-58.111,-39.821l-49.015,-29.719l-109.548,-74.886l-8.119,-2.481l-4.953,1.473l-4.793,2.861l-1.683,3.709l-0.185,3.637l1.161,3.984l2.774,4.904l2.754,5.609l3.147,4.66l3.124,4.462l5.579,6.59l6.84,7.952l54.663,60.506l2.118,6.184l-0.269,4.651l-1.332,3.267l-2.937,4.154l-3.269,3.891l-3.932,3.365l-4.842,1.561l-5.487,0.329l-4.979,0.372l-9.497,0.389l-70.661,-2.221l-80.94,-10.381l-82.507,-10.903l-132.063,-14.747l-149.852,6.984l-90.369,1.952l-39.483,2.531l-9.087,-2.169l-5.1,-2.427l-4.597,-3.288l-5.415,-4.299l-5.328,-4.409l-2.481,-3.231l-1.71,-3.519l-2.019,-3.584l-21.781,-36.566l-13.156,-28.82l-58.625,-244.352l-1.861,-8.323l-2.506,-4.332l-3.228,-2.742l-3.355,-1.221l-2.603,-0.806l-5.314,-0.795l-4.537,0.722l-5.269,-0.398l-8.291,-1.357l-10.167,-1.945l-5.87,-2.137l-30.394,-6.65l-30.9,-6.692l-93.208,-20.118l-40.962,-15.579l-42.479,-14.802l-189.356,-77.161l-128.118,-66.925l-64.431,-32.768l-64.145,-32.9l-74.801,-41.719l-97.458,-59.704l-26.147,-14.269l-7.707,-4.136l-5.558,-1.169l-4.804,0.15l-4.774,2.156l-2.895,3.647l-1.679,4.613l0.638,5.551l2.095,5.986l2.864,5.697l5.459,9.918l3.954,8.183l5.147,8.95l5.592,10.204l4.812,7.783l6.105,5.927l3.368,4.836l2.573,10.149l2.313,11.385l0.55,17.011l2.081,19.848l-0.198,17.499l-1.545,11.025l-10.695,32.767l-34.18,58.265l-4.749,8.481l-4.361,6.628l-4.032,5.988l-4.997,7.203l-4.764,4.866l-5.202,5.419l-6.167,6.635l-72.222,74.19l-5.122,3.501l-4.682,2.949l-5.297,3.723l-6.266,4.034l-5.319,3.525l-6.201,3.726l-16.684,11.258l-64.159,21.137l-36.714,0.404l-10.258,-2.738l-10.05,-6.176l-7.916,-6.824l-5.247,-6.327l-6.801,-9.362l-6.568,-11.699l-5.027,-12.278l-3.026,-13.211l-1.26,-12.711l-3.68,-17.154l-0.646,-13.484l-0.978,-13.748l-0.729,-17.694l-2.419,-21.918l-1.595,-25.227l-3.014,-39.326l18.269,-92.695l13.186,-61.778l19.477,-93.536l23.907,-53.268l6.874,-29.315l4.162,-24.081l-0.052,-13.553l-2.401,-11.274l-5.56,-13.422l-9.198,-13.606l-11.212,-10.161l-20.96,-18.079l-21.721,-15.08l-14.087,-7.218l-14.286,-7.196l-14.514,-9.179l-178.175,-138.909l-173.856,-138.903l-68.502,-54.195l-310.128,-263.648l-339.137,-306.312l-252.196,-253.334l-228.552,-271.319l-179.158,-269.766l-94.427,-172.24l-31.251,-52.551l-27.326,-57.723l-37.098,-65.84l-39.773,-85.62l-40.723,-86.012l-50.563,-94.725l-43.09,-105.727l-26.135,-57.498l-26.531,-57.273l-29.449,-76.883l-4.534,-38.91l-3.732,-39.716l6.791,-31.002l2.561,-7.335l4.66,-6.211l4.874,-4.778l6.302,-3.105l18.52,-3.676l18.88,1.294l8.228,4.91l7.018,5.571l5.996,6.201l3.282,5.488l4.8,7.412l7.656,8.24l5.309,5.115l6.74,4.99l8.251,5.108l8.822,4.66l7.029,2.697l12.544,4.192l7.735,-0.166l6.529,-1.303l9.316,-4.496l5.348,-4.763l5.151,-7.261l3.574,-7.793l-0.022,-8.665l4.43,-31.795l2.271,-17.115l4.349,-9.519l3.772,-4.752l3.898,-3.572l3.779,-3.126l9.619,-5.877l0.002,-0.001Z" style="fill:none;stroke:#000;stroke-width:55.03px;stroke-linecap:round;stroke-miterlimit:1.5;"/></g></g><rect x="-3567.52" y="1087.5" width="20833.3" height="17532.4" style="fill:none;"/><rect x="29.021" y="0" width="13280.2" height="18620.1" style="fill:none;"/></g></svg>