<?xml version="1.0" encoding="UTF-8" standalone="no"?><!DOCTYPE svg PUBLIC "-//W3C//DTD SVG 1.1//EN" "http://www.w3.org/Graphics/SVG/1.1/DTD/svg11.dtd"><svg width="100%" height="100%" viewBox="0 0 1974 1972" version="1.1" xmlns="http://www.w3.org/2000/svg" xmlns:xlink="http://www.w3.org/1999/xlink" xml:space="preserve" xmlns:serif="http://www.serif.com/" style="fill-rule:evenodd;clip-rule:evenodd;stroke-linecap:round;stroke-linejoin:round;stroke-miterlimit:1.5;"><g><g><g><path d="M811.138,936.961c-0.8,1.547 -1.61,3.103 -2.422,4.682c-53.266,102.753 -215.894,200.737 -348.497,254.343c-134.388,54.322 -457.813,71.613 -457.813,71.613c0,-0 56.525,-24.006 132.188,-39.819c64.768,-13.541 222.622,-34.875 307.025,-128.453c60.787,-67.391 104.647,-275.619 144.806,-355.988c20.134,-40.3 66.803,-70.881 126.803,21.5c38.616,59.454 77.206,128.222 79.206,131.807c16.757,30.022 17.832,37.39 18.703,40.315" style="fill:#01665e;stroke:#000;stroke-width:4.81px;"/></g><g><path d="M963.544,955.936c-7.738,-13.156 -15.866,-29.072 -24.438,-48.14c-50.737,-112.891 -69.997,-77.16 -127.953,29.165c44.363,141.791 100.356,80.96 152.391,18.975" style="fill:#8c520b;stroke:#000;stroke-width:4.81px;"/></g><g><path d="M1113.92,925.764c-43.222,44.382 -81.113,147.95 -150.378,30.172c30.906,-36.815 60.418,-74.04 85.265,-69.447c24.585,4.544 45,19.063 65.113,39.275" style="fill:#01665e;stroke:#000;stroke-width:4.81px;"/></g><g><path d="M1495.45,1168.04c-13.884,-6.432 -26.278,-13.269 -36.787,-20.532c-113.782,-78.647 -183.11,-211.443 -306.272,-238.922c-13.788,-3.078 -26.341,4.719 -38.472,17.175c62.734,63.047 122.515,181.5 296.622,225.529c32.34,8.175 60.409,13.559 84.909,16.75" style="fill:#8c510a;stroke:#000;stroke-width:4.81px;"/></g><g><path d="M1967.95,1259.65l3.337,-0.01c0,0 -3.359,-0.228 -9.559,-0.709c-54.781,-4.241 -331.14,-28.297 -466.281,-90.884c230.659,30.015 144.512,-134.494 323.316,9.165c80.284,64.5 124.928,78.716 142.965,81.719c2.631,0.437 4.697,0.637 6.222,0.719c2.256,0.122 3.337,-0.01 3.337,-0.01" style="fill:#01665e;stroke:#000;stroke-width:4.81px;"/></g></g><g><g><path d="M1363.7,973.652c-0.044,2.156 0.334,4.212 -0.288,4.091c-13.218,-2.594 -22.381,-29.55 -35.506,-54.219c-6.64,-12.478 -14.49,-23.766 -14.94,-34.953c-0.375,-9.472 4.225,-16.963 8.062,-24.338c3.925,-7.531 8.478,-14.615 13.131,-16.112c4.691,-1.507 12.438,0.584 19.994,4.45c7.188,3.672 16.019,8.965 20.991,16.7c6.075,9.462 7.215,20.106 8.2,36.44c1.725,28.45 10.29,56.319 -0.569,64.741c-1.153,0.891 -1.544,0.356 -2.225,-0.672l-0.009,-0.128c0.946,4.694 1.887,10.741 2.94,14.444c3.253,11.525 5.369,18.097 7.816,25.009c1.975,5.603 3.256,7.897 6.859,16.484c2.081,4.929 4.722,10.629 5.791,14.11c1.14,3.75 -2.025,2.322 -2.325,2.447c-1.15,0.475 -14.781,-30.885 -15.41,-31.744c-1.921,-2.656 -4.056,-2.288 -4.453,1.091c-0.272,2.3 0.822,11.753 2.557,20.243c1.475,7.203 3.65,13.672 3.29,14.913c-0.797,2.722 -3.165,0.209 -4.025,0.275c-1.325,0.103 -3.728,-23.606 -5.993,-33.413c-1.997,-8.637 -3.713,-14.097 -7.597,-25.422c-1.391,-4.056 -4.469,-10.171 -6.291,-14.565" style="fill:none;"/></g><g><path d="M1326.45,855.014c-5.003,-2.971 -37.353,-18.834 -95.553,20.866c-5.65,3.853 -38.488,20.522 -69.431,11.438c-0.666,-0.197 5.147,6.487 21.3,6.734c7.634,0.116 23.587,-2.619 31.153,-5.594c23.565,-9.272 33.25,-21.594 66.156,-31.778c31.453,-9.734 36.613,4.034 43.172,3.441" style="fill:none;stroke:#000;stroke-width:4.25px;stroke-linecap:butt;"/></g><g><path d="M1343.11,848.336c2.4,-5.35 19.472,-36.784 89.6,-38.318c6.807,-0.147 43.116,-5.7 63.253,-31.197c0.435,-0.55 -0.521,8.312 -13.587,17.943c-6.175,4.554 -20.769,11.638 -28.644,13.622c-24.531,6.182 -39.444,1.766 -72.131,12.657c-31.241,10.412 -26.203,24.115 -31.9,27.462" style="fill:none;stroke:#000;stroke-width:4.22px;stroke-linecap:butt;"/></g><g><path d="M1363.7,973.655c-0.044,2.153 0.334,4.209 -0.288,4.088c-5.04,-0.988 -9.481,-5.516 -13.79,-12.107" style="fill:none;stroke:#000;stroke-width:4.25px;"/></g><g><path d="M1349.61,965.636c-3.162,-4.853 -6.253,-10.825 -9.44,-17.325" style="fill:none;stroke:#000;stroke-width:4.25px;"/></g><g><path d="M1340.17,948.311c-2.616,-5.322 -5.288,-11.003 -8.138,-16.709" style="fill:none;stroke:#000;stroke-width:4.25px;"/></g><g><path d="M1332.04,931.602c-1.331,-2.7 -2.71,-5.403 -4.138,-8.078c-1.828,-3.431 -3.744,-6.775 -5.575,-10.05" style="fill:none;stroke:#000;stroke-width:4.25px;"/></g><g><path d="M1322.33,913.474c-4.822,-8.631 -9.041,-16.794 -9.366,-24.903c-0.375,-9.472 4.225,-16.963 8.066,-24.338c3.922,-7.531 8.475,-14.615 13.128,-16.109c2.35,-0.756 5.463,-0.61 8.938,0.209" style="fill:none;stroke:#000;stroke-width:4.25px;"/></g><g><path d="M1343.11,848.333c2.097,0.494 4.322,1.235 6.588,2.172" style="fill:none;stroke:#000;stroke-width:4.25px;"/></g><g><path d="M1349.67,850.505c1.478,0.609 2.984,1.3 4.469,2.066c7.187,3.672 16.018,8.965 20.99,16.7c6.078,9.465 7.216,20.106 8.2,36.44c0.228,3.638 0.553,7.269 0.947,10.847" style="fill:none;stroke:#000;stroke-width:4.25px;"/></g><g><path d="M1384.29,916.558c0.659,6.103 1.49,12.066 2.215,17.688" style="fill:none;stroke:#000;stroke-width:4.25px;"/></g><g><path d="M1386.51,934.246c0.79,6.162 1.456,11.918 1.628,17.015" style="fill:none;stroke:#000;stroke-width:4.25px;"/></g><g><path d="M1388.14,951.261c0.312,8.847 -0.85,15.694 -5.36,19.191c-1.153,0.894 -1.544,0.356 -2.225,-0.672" style="fill:none;stroke:#000;stroke-width:4.25px;"/></g><path d="M1363.61,973.343c0,-0 3.7,7.659 5.225,11.784c1.522,4.125 2.435,6.694 2.435,6.694l3.881,11.322l0.481,1.543l2.25,10.491l2.55,15.831l0.288,0.925l1.265,8.431l0.557,2.879l1.062,3.396l-0.216,0.41l0.407,0.206l0.722,0.109l0.815,0.419l1.438,0.216l0.528,-0.51l0.428,-0.815l-0.384,-1.238l-0.366,-2.259l-0.481,-1.544l-0.269,-1.953l-0.675,-2.162l-0.366,-2.263l-1.69,-7.609l-1.266,-8.428l-0.566,-7.294l0.335,-1.125l0.119,-0.719l0.215,-0.409l0.525,-0.51l1.247,-0.4l1.225,0.625l0.6,0.828l0.503,0.516l0.485,1.544l3.753,7.628l4.431,9.791l3.85,7.937l1.181,2.678l1.106,1.344l0.504,0.516l0.815,0.418l1.247,-0.4l0.428,-0.818l0.022,-1.025l-0.697,-1.135l-1.544,-4.94l-3.25,-7.113l-2.84,-6.9l-3.735,-8.656l-2.531,-7l-4.825,-15.438l-2.369,-9.775l-1.765,-8.943l-0.291,-0.929l1.416,1.244" style="fill:none;stroke:#000;stroke-width:4.22px;stroke-linecap:butt;"/><g><path d="M1380.54,969.78c-0.403,-0.603 -0.91,-1.381 -1.738,-2.131c-2.484,-2.26 -6.625,-2.291 -8.509,-1.685c-1.978,0.638 -5.156,2.088 -6.203,5.05c-0.281,0.794 -0.381,1.725 -0.4,2.641" style="fill:none;stroke:#000;stroke-width:4.25px;"/></g><g><path d="M1377.61,1013.64c0,-0 0.647,-3.016 4.169,-2.019" style="fill:none;stroke:#000;stroke-width:0.84px;"/></g><g><path d="M1386.23,1010.53c0,0 1.794,-3.978 5.082,-1.294" style="fill:none;stroke:#000;stroke-width:0.84px;"/></g><g><path d="M1386.36,994.102c0,-0 -3.962,3.903 -13.293,4.612" style="fill:none;stroke:#000;stroke-width:0.84px;"/></g><g><path d="M1383.2,983.911c-0,0 -3.169,3.878 -13.294,4.613" style="fill:none;stroke:#000;stroke-width:0.84px;"/></g><g><path d="M1380.79,970.752c-0,-0 -4.925,4.456 -15.788,5.412" style="fill:none;stroke:#000;stroke-width:0.84px;"/></g><g><path d="M1382.51,895.105c-0,0 -16.272,14.4 -60.185,18.372" style="fill:none;stroke:#000;stroke-width:0.84px;"/></g><g><path d="M1322.33,913.477c-0.072,0.006 -0.144,0.012 -0.219,0.019" style="fill:none;stroke:#000;stroke-width:0.84px;"/></g><g><path d="M1384.42,916.577c-0,-0 -0.044,-0.006 -0.135,-0.019" style="fill:none;stroke:#000;stroke-width:0.84px;"/></g><g><path d="M1384.29,916.558c-1.822,-0.225 -21.825,-2.212 -52.241,15.044" style="fill:none;stroke:#000;stroke-width:0.84px;"/></g><g><path d="M1332.04,931.602c-0.144,0.081 -0.288,0.162 -0.431,0.247" style="fill:none;stroke:#000;stroke-width:0.84px;"/></g><g><path d="M1386.51,934.252c-0,-0 -0.004,-0.003 -0.016,-0.006" style="fill:none;stroke:#000;stroke-width:0.84px;"/></g><g><path d="M1386.51,934.246c-0.707,-0.191 -23.791,-6.25 -46.329,14.068" style="fill:none;stroke:#000;stroke-width:0.84px;"/></g><g><path d="M1340.17,948.314c-0.088,0.075 -0.172,0.154 -0.257,0.232" style="fill:none;stroke:#000;stroke-width:0.84px;"/></g><g><path d="M1388.42,951.308c-0,0 -0.1,-0.019 -0.288,-0.047" style="fill:none;stroke:#000;stroke-width:0.84px;"/></g><g><path d="M1388.14,951.261c-2.782,-0.437 -25.097,-3.309 -38.513,14.378" style="fill:none;stroke:#000;stroke-width:0.84px;"/></g><g><path d="M1349.61,965.639c-0.062,0.079 -0.119,0.157 -0.178,0.235" style="fill:none;stroke:#000;stroke-width:0.84px;"/></g><g><path d="M1382.2,1040.89c0,0 -0.116,1.882 -1.581,2.863c-1.466,0.978 -2.566,1.581 -2.566,1.581c0,0 4.153,-3.687 3.559,-5.544c-0.593,-1.853 0.588,1.1 0.588,1.1Z" style="fill:none;stroke:#000;stroke-width:0.84px;"/></g><g><path d="M1401.76,1034.6c-0,-0 1.162,1.472 2.918,1.415c1.753,-0.053 2.997,-0.203 2.997,-0.203c0,0 -5.49,-0.59 -6.059,-2.453c-0.569,-1.862 0.144,1.241 0.144,1.241Z" style="fill:none;stroke:#000;stroke-width:0.84px;"/></g><g><path d="M1388.67,1060.62c-0,-0 -2.613,-8.738 -3.316,-10.972c-0.369,-1.178 -0.625,-2.013 -0.625,-2.013l1.163,0.61c-0,-0 0.331,1.869 0.809,4.165c0.478,2.297 1.969,8.21 1.969,8.21Z" style="fill:none;stroke:#000;stroke-width:0.41px;stroke-linecap:butt;"/></g><g><path d="M1390.95,1059.22c-0,-0 -2.644,-5.181 -3.347,-7.419c-0.369,-1.175 -1.469,-3.603 -1.469,-3.603c0.166,-0.103 0.563,-0.019 0.935,-0.303c-0,-0 0.197,-0.135 0.675,2.162c0.478,2.297 3.206,9.163 3.206,9.163Z" style="fill:none;stroke:#000;stroke-width:0.41px;stroke-linecap:butt;"/></g><g><path d="M1384.58,1058.56c0,0 -0.847,-6.497 -1.05,-8.837c-0.106,-1.232 0.263,-2.804 0.263,-2.804l1.003,0.844c-0,0 -0.438,3.494 -0.466,5.844c-0.031,2.353 0.25,4.953 0.25,4.953Z" style="fill:none;stroke:#000;stroke-width:0.44px;stroke-linecap:butt;"/></g><g><path d="M1408.42,1054.61c-0,0 -2.947,-8.881 -3.678,-11.175c-0.385,-1.206 -0.663,-2.056 -0.663,-2.056l-0.484,1.153c-0,-0 0.79,1.778 1.712,3.997c0.922,2.222 3.113,8.081 3.113,8.081Z" style="fill:none;stroke:#000;stroke-width:0.41px;stroke-linecap:butt;"/></g><g><path d="M1405.39,1053.9c-0,0 -0.785,-5.784 -1.479,-8.022c-0.368,-1.175 -0.846,-3.803 -0.846,-3.803c-0.194,0.013 -0.469,0.313 -0.935,0.3c0,0 -0.237,0.003 0.675,2.159c0.913,2.157 2.585,9.366 2.585,9.366Z" style="fill:none;stroke:#000;stroke-width:0.41px;stroke-linecap:butt;"/></g><g><path d="M1410.42,1050.63c-0,-0 -3.094,-5.728 -4.275,-7.741c-0.622,-1.062 -1.741,-2.175 -1.741,-2.175l-0.175,1.169c0,0 2.241,2.653 3.578,4.569c1.335,1.912 2.613,4.178 2.613,4.178Z" style="fill:none;stroke:#000;stroke-width:0.41px;stroke-linecap:butt;"/></g><g><path d="M1336.89,855.146c1.812,-0.585 3.634,0.059 4.065,1.437c0.428,1.375 -0.694,2.966 -2.509,3.547c-1.813,0.584 -3.635,-0.059 -4.066,-1.437c-0.428,-1.375 0.694,-2.966 2.51,-3.547Z" style="stroke:#000;stroke-width:4.22px;stroke-linecap:butt;"/></g></g><g><g><path d="M1118.95,706.808c3.284,2.26 3.813,6.719 1.175,9.95c-2.638,3.228 -7.447,4.016 -10.731,1.753c-3.288,-2.262 -3.813,-6.718 -1.175,-9.95c2.634,-3.228 7.444,-4.015 10.731,-1.753Z" style="fill:#fff;stroke:#000;stroke-width:2.5px;"/></g><g><path d="M1129.76,710.368c3.225,2.218 3.703,6.643 1.065,9.875c-2.637,3.228 -7.397,4.046 -10.622,1.828c-3.228,-2.222 -3.706,-6.647 -1.069,-9.875c2.638,-3.232 7.397,-4.05 10.626,-1.828Z" style="fill:#fff;stroke:#000;stroke-width:2.5px;"/></g><g><path d="M1140.11,715.661c3.225,2.219 3.703,6.644 1.066,9.875c-2.638,3.228 -7.397,4.05 -10.622,1.828c-3.228,-2.218 -3.706,-6.643 -1.069,-9.875c2.638,-3.228 7.397,-4.05 10.625,-1.828Z" style="fill:#fff;stroke:#000;stroke-width:2.5px;"/></g><g><path d="M1147.51,722.639c3.228,2.219 3.706,6.644 1.068,9.875c-2.637,3.232 -7.397,4.05 -10.625,1.829c-3.225,-2.219 -3.703,-6.644 -1.065,-9.875c2.637,-3.229 7.397,-4.05 10.622,-1.829Z" style="stroke:#000;stroke-width:2.5px;"/></g><g><path d="M1153.11,731.555c3.225,2.219 3.703,6.644 1.066,9.875c-2.638,3.228 -7.397,4.05 -10.625,1.828c-3.225,-2.222 -3.703,-6.644 -1.066,-9.875c2.638,-3.231 7.397,-4.05 10.625,-1.828Z" style="fill:#fff;stroke:#000;stroke-width:2.5px;"/></g><g><path d="M1157.14,742.239c3.228,2.219 3.706,6.644 1.068,9.875c-2.637,3.229 -7.397,4.05 -10.625,1.829c-3.225,-2.219 -3.703,-6.644 -1.065,-9.875c2.637,-3.229 7.397,-4.05 10.622,-1.829Z" style="fill:#fff;stroke:#000;stroke-width:2.5px;"/></g><g><path d="M1158.64,753.121c3.225,2.222 3.703,6.647 1.065,9.875c-2.637,3.231 -7.397,4.05 -10.625,1.828c-3.225,-2.219 -3.703,-6.644 -1.066,-9.875c2.638,-3.228 7.397,-4.047 10.626,-1.828Z" style="fill:#fff;stroke:#000;stroke-width:2.5px;"/></g><g><path d="M1158.33,763.189c3.225,2.222 3.703,6.647 1.066,9.875c-2.638,3.232 -7.397,4.05 -10.622,1.829c-3.225,-2.219 -3.703,-6.644 -1.069,-9.875c2.638,-3.229 7.4,-4.047 10.625,-1.829Z" style="fill:#fff;stroke:#000;stroke-width:2.5px;"/></g><g><path d="M1155.2,773.399c3.225,2.222 3.703,6.647 1.066,9.875c-2.638,3.231 -7.397,4.05 -10.622,1.828c-3.228,-2.219 -3.706,-6.644 -1.069,-9.875c2.638,-3.228 7.397,-4.047 10.625,-1.828Z" style="fill:#fff;stroke:#000;stroke-width:2.5px;"/></g><g><path d="M1149.42,783.383c3.225,2.222 3.703,6.644 1.065,9.875c-2.634,3.231 -7.397,4.05 -10.621,1.828c-3.225,-2.218 -3.704,-6.643 -1.066,-9.875c2.634,-3.228 7.397,-4.05 10.622,-1.828Z" style="stroke:#000;stroke-width:2.5px;"/></g><g><path d="M1142.2,791.221c3.225,2.222 3.703,6.647 1.066,9.875c-2.638,3.231 -7.397,4.05 -10.622,1.828c-3.228,-2.219 -3.706,-6.644 -1.069,-9.875c2.638,-3.228 7.397,-4.047 10.625,-1.828Z" style="fill:#fff;stroke:#000;stroke-width:2.5px;"/></g><g><path d="M1133.58,797.364c3.228,2.219 3.706,6.644 1.069,9.875c-2.638,3.229 -7.397,4.05 -10.625,1.829c-3.225,-2.219 -3.703,-6.644 -1.066,-9.875c2.638,-3.229 7.397,-4.05 10.622,-1.829Z" style="fill:#fff;stroke:#000;stroke-width:2.5px;"/></g><g><path d="M1124.36,802.189c3.228,2.222 3.707,6.647 1.069,9.875c-2.637,3.232 -7.397,4.05 -10.625,1.832c-3.225,-2.222 -3.703,-6.647 -1.066,-9.875c2.638,-3.232 7.397,-4.05 10.622,-1.832Z" style="fill:#fff;stroke:#000;stroke-width:2.5px;"/></g><g><path d="M1114.29,805.296c3.225,2.218 3.703,6.643 1.065,9.875c-2.634,3.228 -7.397,4.047 -10.621,1.828c-3.225,-2.222 -3.704,-6.647 -1.069,-9.875c2.637,-3.231 7.4,-4.05 10.625,-1.828Z" style="fill:#fff;stroke:#000;stroke-width:2.5px;"/></g><g><path d="M1101.92,806.814c3.228,2.219 3.706,6.644 1.069,9.875c-2.638,3.229 -7.397,4.05 -10.625,1.829c-3.225,-2.222 -3.704,-6.644 -1.066,-9.875c2.637,-3.232 7.397,-4.05 10.622,-1.829Z" style="fill:#fff;stroke:#000;stroke-width:2.5px;"/></g><g><path d="M1090.73,805.846c3.228,2.222 3.707,6.647 1.069,9.875c-2.637,3.231 -7.397,4.05 -10.625,1.831c-3.225,-2.222 -3.703,-6.647 -1.066,-9.875c2.638,-3.231 7.397,-4.05 10.622,-1.831Z" style="fill:#fff;stroke:#000;stroke-width:2.5px;"/></g><g><path d="M1080.98,803.036c3.228,2.222 3.707,6.647 1.069,9.875c-2.637,3.232 -7.397,4.05 -10.625,1.828c-3.225,-2.218 -3.703,-6.643 -1.066,-9.875c2.638,-3.228 7.397,-4.046 10.622,-1.828Z" style="stroke:#000;stroke-width:2.5px;"/></g><g><path d="M1071.39,797.943c3.228,2.221 3.706,6.646 1.068,9.875c-2.637,3.231 -7.397,4.05 -10.625,1.831c-3.225,-2.222 -3.703,-6.647 -1.065,-9.875c2.637,-3.231 7.397,-4.05 10.622,-1.831Z" style="fill:#fff;stroke:#000;stroke-width:2.5px;"/></g><g><path d="M1063.51,790.568c3.228,2.221 3.706,6.646 1.068,9.875c-2.637,3.231 -7.397,4.05 -10.625,1.828c-3.225,-2.219 -3.703,-6.644 -1.065,-9.875c2.637,-3.228 7.397,-4.05 10.622,-1.828Z" style="fill:#fff;stroke:#000;stroke-width:2.5px;"/></g><g><path d="M1057.39,782.193c3.225,2.221 3.704,6.646 1.066,9.875c-2.637,3.231 -7.397,4.05 -10.622,1.831c-3.228,-2.222 -3.706,-6.647 -1.069,-9.875c2.638,-3.231 7.397,-4.05 10.625,-1.831Z" style="fill:#fff;stroke:#000;stroke-width:2.5px;"/></g><g><path d="M1053.17,772.271c3.225,2.218 3.703,6.643 1.065,9.875c-2.637,3.228 -7.397,4.05 -10.621,1.828c-3.229,-2.219 -3.704,-6.644 -1.069,-9.875c2.637,-3.228 7.4,-4.05 10.625,-1.828Z" style="fill:#fff;stroke:#000;stroke-width:2.5px;"/></g><g><path d="M1053.39,761.802c3.224,2.222 3.703,6.647 1.065,9.875c-2.637,3.231 -7.397,4.05 -10.625,1.828c-3.225,-2.219 -3.703,-6.644 -1.066,-9.875c2.638,-3.228 7.397,-4.047 10.626,-1.828Z" style="fill:#fff;stroke:#000;stroke-width:2.5px;"/></g><g><path d="M1057.51,751.455c3.225,2.222 3.703,6.647 1.065,9.875c-2.637,3.231 -7.397,4.05 -10.625,1.828c-3.225,-2.219 -3.703,-6.644 -1.065,-9.875c2.637,-3.228 7.396,-4.047 10.625,-1.828Z" style="stroke:#000;stroke-width:2.5px;"/></g><g><path d="M1064.89,744.286c3.225,2.222 3.703,6.647 1.065,9.875c-2.634,3.232 -7.397,4.05 -10.622,1.832c-3.225,-2.222 -3.703,-6.647 -1.065,-9.875c2.634,-3.232 7.397,-4.05 10.622,-1.832Z" style="fill:#fff;stroke:#000;stroke-width:2.5px;"/></g><g><path d="M1075.08,739.739c3.228,2.222 3.706,6.647 1.069,9.879c-2.638,3.228 -7.397,4.046 -10.625,1.828c-3.225,-2.222 -3.703,-6.647 -1.066,-9.875c2.638,-3.232 7.397,-4.05 10.622,-1.832Z" style="fill:#fff;stroke:#000;stroke-width:2.5px;"/></g><g><path d="M1087.26,737.102c3.225,2.219 3.703,6.644 1.065,9.875c-2.637,3.228 -7.397,4.047 -10.622,1.828c-3.228,-2.222 -3.706,-6.647 -1.068,-9.875c2.637,-3.231 7.396,-4.05 10.625,-1.828Z" style="fill:#fff;stroke:#000;stroke-width:2.5px;"/></g><g><path d="M1097.89,740.874c3.224,2.219 3.703,6.644 1.065,9.875c-2.634,3.228 -7.397,4.047 -10.622,1.828c-3.225,-2.222 -3.703,-6.647 -1.065,-9.875c2.634,-3.231 7.397,-4.05 10.622,-1.828Z" style="fill:#fff;stroke:#000;stroke-width:2.5px;"/></g><g><path d="M1108.51,747.114c3.225,2.219 3.703,6.644 1.068,9.875c-2.637,3.229 -7.4,4.05 -10.625,1.829c-3.225,-2.219 -3.703,-6.644 -1.065,-9.875c2.637,-3.229 7.397,-4.05 10.622,-1.829Z" style="fill:#fff;stroke:#000;stroke-width:2.5px;"/></g><g><path d="M1118.33,754.696c3.228,2.218 3.706,6.643 1.069,9.875c-2.638,3.228 -7.397,4.05 -10.625,1.828c-3.225,-2.219 -3.703,-6.644 -1.066,-9.875c2.638,-3.231 7.397,-4.05 10.622,-1.828Z" style="stroke:#000;stroke-width:2.5px;"/></g><g><path d="M1124.54,763.386c3.225,2.222 3.703,6.647 1.065,9.875c-2.634,3.232 -7.397,4.05 -10.621,1.832c-3.225,-2.222 -3.704,-6.647 -1.066,-9.875c2.634,-3.232 7.397,-4.05 10.622,-1.832Z" style="fill:#fff;stroke:#000;stroke-width:2.5px;"/></g><g><path d="M1130.45,773.536c3.225,2.222 3.703,6.647 1.069,9.875c-2.638,3.232 -7.4,4.05 -10.625,1.828c-3.225,-2.218 -3.703,-6.643 -1.066,-9.875c2.638,-3.228 7.397,-4.046 10.622,-1.828Z" style="fill:#fff;stroke:#000;stroke-width:2.5px;"/></g><g><path d="M1134.36,783.958c3.225,2.222 3.703,6.647 1.069,9.875c-2.637,3.231 -7.4,4.05 -10.625,1.828c-3.225,-2.218 -3.703,-6.643 -1.066,-9.875c2.635,-3.228 7.397,-4.047 10.622,-1.828Z" style="fill:#fff;stroke:#000;stroke-width:2.5px;"/></g><g><path d="M1135.51,793.433c3.225,2.219 3.704,6.644 1.066,9.875c-2.637,3.228 -7.397,4.05 -10.622,1.828c-3.228,-2.218 -3.706,-6.643 -1.069,-9.875c2.638,-3.228 7.397,-4.05 10.625,-1.828Z" style="fill:#fff;stroke:#000;stroke-width:2.5px;"/></g><g><path d="M1135.42,802.789c3.225,2.219 3.703,6.644 1.065,9.875c-2.637,3.229 -7.397,4.05 -10.621,1.829c-3.229,-2.219 -3.707,-6.644 -1.069,-9.875c2.637,-3.229 7.397,-4.05 10.625,-1.829Z" style="stroke:#000;stroke-width:2.5px;"/></g><g><path d="M1133.61,814.605c3.225,2.222 3.703,6.647 1.066,9.875c-2.638,3.231 -7.397,4.05 -10.622,1.831c-3.228,-2.222 -3.706,-6.647 -1.069,-9.875c2.638,-3.231 7.397,-4.05 10.625,-1.831Z" style="fill:#fff;stroke:#000;stroke-width:2.5px;"/></g><g><path d="M1129.61,824.489c3.225,2.219 3.703,6.644 1.066,9.875c-2.638,3.232 -7.397,4.05 -10.622,1.829c-3.228,-2.219 -3.706,-6.644 -1.069,-9.875c2.638,-3.229 7.397,-4.05 10.625,-1.829Z" style="fill:#fff;stroke:#000;stroke-width:2.5px;"/></g><g><path d="M1122.17,833.764c3.228,2.222 3.706,6.647 1.069,9.875c-2.638,3.232 -7.397,4.05 -10.625,1.832c-3.225,-2.222 -3.704,-6.647 -1.066,-9.875c2.637,-3.232 7.397,-4.05 10.622,-1.832Z" style="stroke:#000;stroke-width:2.5px;"/></g><g><path d="M1114.42,842.089c3.228,2.222 3.706,6.647 1.069,9.875c-2.638,3.232 -7.397,4.05 -10.625,1.829c-3.225,-2.219 -3.704,-6.644 -1.066,-9.875c2.637,-3.229 7.397,-4.047 10.622,-1.829Z" style="fill:#fff;stroke:#000;stroke-width:2.5px;"/></g><g><path d="M1104.2,848.733c3.228,2.219 3.706,6.644 1.069,9.875c-2.638,3.231 -7.397,4.05 -10.625,1.828c-3.225,-2.218 -3.703,-6.643 -1.066,-9.875c2.638,-3.228 7.397,-4.05 10.622,-1.828Z" style="fill:#fff;stroke:#000;stroke-width:2.5px;"/></g><g><path d="M1094.67,853.208c3.228,2.222 3.706,6.647 1.069,9.875c-2.638,3.231 -7.397,4.05 -10.625,1.828c-3.225,-2.218 -3.704,-6.643 -1.066,-9.875c2.637,-3.228 7.397,-4.047 10.622,-1.828Z" style="fill:#fff;stroke:#000;stroke-width:2.5px;"/></g><g><path d="M1084.42,856.289c3.225,2.219 3.703,6.644 1.065,9.875c-2.637,3.229 -7.397,4.05 -10.621,1.829c-3.225,-2.219 -3.704,-6.644 -1.069,-9.875c2.637,-3.229 7.4,-4.05 10.625,-1.829Z" style="stroke:#000;stroke-width:2.5px;"/></g><g><path d="M1074.04,857.193c3.228,2.221 3.706,6.646 1.069,9.875c-2.638,3.231 -7.397,4.05 -10.625,1.831c-3.225,-2.222 -3.704,-6.647 -1.066,-9.875c2.637,-3.231 7.397,-4.05 10.622,-1.831Z" style="fill:#fff;stroke:#000;stroke-width:2.5px;"/></g><g><path d="M1063.11,856.205c3.225,2.219 3.703,6.644 1.066,9.875c-2.638,3.228 -7.397,4.047 -10.622,1.828c-3.228,-2.222 -3.706,-6.647 -1.069,-9.875c2.638,-3.231 7.397,-4.05 10.625,-1.828Z" style="fill:#fff;stroke:#000;stroke-width:2.5px;"/></g><g><path d="M1055.08,853.924c3.225,2.222 3.703,6.647 1.066,9.875c-2.638,3.231 -7.397,4.05 -10.622,1.828c-3.228,-2.219 -3.706,-6.644 -1.069,-9.875c2.637,-3.228 7.4,-4.05 10.625,-1.828Z" style="fill:#fff;stroke:#000;stroke-width:2.5px;"/></g><g><path d="M1046.29,849.643c3.225,2.221 3.703,6.643 1.065,9.875c-2.634,3.231 -7.397,4.05 -10.621,1.828c-3.225,-2.219 -3.704,-6.644 -1.066,-9.875c2.634,-3.228 7.397,-4.05 10.622,-1.828Z" style="fill:#fff;stroke:#000;stroke-width:2.5px;"/></g><g><path d="M1037.95,843.858c3.225,2.222 3.703,6.647 1.066,9.875c-2.638,3.231 -7.397,4.05 -10.622,1.831c-3.228,-2.221 -3.706,-6.646 -1.069,-9.875c2.638,-3.231 7.397,-4.05 10.625,-1.831Z" style="fill:#fff;stroke:#000;stroke-width:2.5px;"/></g><g><path d="M1031.36,836.518c3.225,2.218 3.703,6.643 1.066,9.875c-2.638,3.228 -7.397,4.046 -10.622,1.828c-3.225,-2.222 -3.703,-6.647 -1.069,-9.875c2.638,-3.232 7.4,-4.05 10.625,-1.828Z" style="stroke:#000;stroke-width:2.5px;"/></g><g><path d="M1026.45,826.855c3.225,2.222 3.703,6.647 1.066,9.875c-2.638,3.231 -7.397,4.05 -10.622,1.831c-3.228,-2.222 -3.706,-6.647 -1.069,-9.875c2.637,-3.231 7.397,-4.05 10.625,-1.831Z" style="fill:#fff;stroke:#000;stroke-width:2.5px;"/></g><g><path d="M1023.33,818.149c3.225,2.222 3.703,6.647 1.069,9.875c-2.638,3.231 -7.4,4.05 -10.625,1.831c-3.225,-2.222 -3.703,-6.647 -1.066,-9.875c2.638,-3.231 7.397,-4.05 10.622,-1.831Z" style="fill:#fff;stroke:#000;stroke-width:2.5px;"/></g><g><path d="M1021.29,810.364c3.228,2.219 3.706,6.644 1.069,9.875c-2.638,3.232 -7.397,4.05 -10.625,1.829c-3.225,-2.219 -3.704,-6.644 -1.066,-9.875c2.637,-3.229 7.397,-4.05 10.622,-1.829Z" style="fill:#fff;stroke:#000;stroke-width:2.5px;"/></g></g><g><g><g><path d="M937.794,768.511c0.262,0.088 0.534,0.169 0.8,0.241c6.012,1.609 16.981,3.228 17.309,3.087c0.328,-0.137 -11.79,-2.768 -15.34,-3.921c-0.31,-0.1 -0.607,-0.2 -0.897,-0.294" style="fill:none;stroke:#000;stroke-width:0.72px;stroke-linecap:butt;"/></g><g><path d="M939.763,758.521c0.275,-0.057 0.549,-0.107 0.821,-0.147c6.147,-0.913 17.222,-1.269 17.532,-1.091c0.312,0.172 -12.013,1.406 -15.663,2.147c-0.316,0.066 -0.625,0.128 -0.922,0.191" style="fill:none;stroke:#000;stroke-width:0.72px;stroke-linecap:butt;"/></g><g><path d="M931.544,746.221c0.212,-0.178 0.425,-0.363 0.625,-0.55c4.544,-4.219 11.712,-12.622 11.765,-12.972c0.06,-0.353 -8.581,8.481 -11.434,10.859c-0.247,0.21 -0.487,0.41 -0.722,0.603" style="fill:none;stroke:#000;stroke-width:0.72px;stroke-linecap:butt;"/></g><g><path d="M919.575,736.843c0.097,-0.263 0.2,-0.522 0.309,-0.775c2.475,-5.685 8.022,-15.235 8.338,-15.4c0.312,-0.172 -5.156,10.906 -6.453,14.387c-0.116,0.303 -0.225,0.597 -0.328,0.881" style="fill:none;stroke:#000;stroke-width:0.72px;stroke-linecap:butt;"/></g><g><g><path d="M937.481,751.489c0.082,0.169 0.103,1.15 0.591,1.216c0.659,0.094 1.825,-0.716 1.872,-0.225c0.669,6.566 -1.763,24.134 1.2,30.244c4.919,10.134 -6.863,1.297 -7.019,14.365c-0.034,2.81 -6.737,7.913 -9.747,6.682c-5.612,-2.303 -0.228,-14.885 -3.331,-7.897c-0.281,0.628 -2.903,-0.166 -5.453,1.119c-8.003,4.034 -23.375,12.143 -29.578,14.203c-13.697,4.547 -26.057,5.678 -31.069,3.925c-7.222,-2.532 -15.931,-1.657 -18.103,-2.303c-3.06,-0.91 -19.516,7.237 -25.888,8.431c-0.425,0.078 -6.543,1.922 -7.059,0.89c-0.331,-0.659 5.222,-4.196 4.284,-4.556c-1.347,-0.519 -5.953,1.1 -6.25,0.503c-0.853,-1.684 4.566,-3.337 4.675,-3.743c0.488,-1.779 21.907,-12.519 24.582,-17.3c1.69,-3.022 3.706,-10.032 8.465,-17.56c4.347,-6.881 11.247,-14.231 16.941,-18.631c9.522,-7.353 26.362,-14.666 31.037,-18.413c0.441,-0.35 4.178,-3.709 6.682,-2.696c6.215,2.512 -9.004,-5.172 -6.329,-9.954c1.729,-3.096 13.313,-2.796 15.522,-0.959c4.188,3.488 5.719,-6.744 9.653,1.363c1.41,2.906 19.291,14.1 24.804,18.737c0.487,0.409 -0.766,0.772 -1.072,1.344c-0.21,0.4 0.522,1.075 0.59,1.215Z" style="fill:none;"/></g><g><path d="M937.481,751.489c0.082,0.169 0.103,1.15 0.591,1.216c0.659,0.094 1.825,-0.716 1.872,-0.225c0.669,6.566 -1.763,24.134 1.2,30.244c4.919,10.134 -6.863,1.297 -7.019,14.365c-0.034,2.81 -6.737,7.913 -9.747,6.682c-5.612,-2.303 -0.228,-14.885 -3.331,-7.897c-0.281,0.628 -2.903,-0.166 -5.453,1.119c-8.003,4.034 -23.375,12.143 -29.578,14.203c-13.697,4.547 -26.057,5.678 -31.069,3.925c-7.222,-2.532 -15.931,-1.657 -18.103,-2.303c-3.06,-0.91 -19.516,7.237 -25.888,8.431c-0.425,0.078 -6.543,1.922 -7.059,0.89c-0.331,-0.659 5.222,-4.196 4.284,-4.556c-1.347,-0.519 -5.953,1.1 -6.25,0.503c-0.853,-1.684 4.566,-3.337 4.675,-3.743c0.488,-1.779 21.907,-12.519 24.582,-17.3c1.69,-3.022 3.706,-10.032 8.465,-17.56c4.347,-6.881 11.247,-14.231 16.941,-18.631c9.522,-7.353 26.362,-14.666 31.037,-18.413c0.441,-0.35 4.178,-3.709 6.682,-2.696c6.215,2.512 -9.004,-5.172 -6.329,-9.954c1.729,-3.096 13.313,-2.796 15.522,-0.959c4.188,3.488 5.719,-6.744 9.653,1.363c1.41,2.906 19.291,14.1 24.804,18.737c0.487,0.409 -0.766,0.772 -1.072,1.344c-0.21,0.4 0.522,1.075 0.59,1.215Z" style="fill:none;stroke:#000;stroke-width:3.56px;stroke-linecap:butt;"/></g><g><path d="M833.575,797.877c0,-0 -0.641,5.572 6.503,12.372" style="fill:none;stroke:#000;stroke-width:0.72px;stroke-linecap:butt;"/></g><g><path d="M829.888,801.108c-0,0 -1.069,5.169 4.581,9.813" style="fill:none;stroke:#000;stroke-width:0.72px;stroke-linecap:butt;"/></g></g></g><g><path d="M905.263,759.724c-0,-0 -14.494,9.875 -36.997,3.862" style="fill:none;stroke:#000;stroke-width:0.72px;stroke-linecap:butt;"/></g><g><path d="M913.106,775.502c0,-0 -16.5,5.994 -24.668,27.709" style="fill:none;stroke:#000;stroke-width:0.72px;stroke-linecap:butt;"/></g></g><g><g><g><path d="M319.056,1113.9c2.778,2.594 2.953,6.965 0.391,9.753l-19.585,21.309c-2.562,2.788 -6.899,2.947 -9.678,0.35l-10.065,-9.4c-2.778,-2.593 -2.95,-6.962 -0.388,-9.753l19.585,-21.309c2.562,-2.788 6.897,-2.947 9.675,-0.35l10.065,9.4Z" style="fill:none;stroke:#000;stroke-width:3.03px;"/></g><g><path d="M348.063,1082.31c2.778,2.594 2.953,6.966 0.39,9.753l-19.587,21.31c-2.563,2.787 -6.897,2.947 -9.675,0.35l-10.066,-9.4c-2.778,-2.594 -2.953,-6.963 -0.391,-9.753l19.588,-21.31c2.562,-2.787 6.897,-2.947 9.672,-0.35l10.069,9.4Z" style="fill:none;stroke:#000;stroke-width:3.03px;"/></g><g><path d="M376.975,1050.85c2.778,2.594 2.953,6.966 0.391,9.753l-19.585,21.309c-2.562,2.788 -6.9,2.947 -9.678,0.35l-10.065,-9.4c-2.779,-2.593 -2.95,-6.962 -0.388,-9.753l19.584,-21.309c2.563,-2.788 6.897,-2.947 9.675,-0.353l10.066,9.403Z" style="fill:none;stroke:#000;stroke-width:3.03px;"/></g><g><path d="M405.888,1019.39c2.778,2.593 2.953,6.965 0.39,9.753l-19.584,21.309c-2.563,2.788 -6.897,2.947 -9.675,0.35l-10.069,-9.4c-2.775,-2.597 -2.95,-6.962 -0.387,-9.753l19.584,-21.309c2.562,-2.788 6.897,-2.947 9.675,-0.354l10.066,9.404Z" style="fill:none;stroke:#000;stroke-width:3.03px;"/></g><g><path d="M377.019,1050.81c15.178,7.575 10.493,7.269 15.181,7.463c4.691,0.194 10.631,-1.097 15.131,1.087" style="fill:none;stroke:#000;stroke-width:3px;"/></g><g><path d="M350.278,1084.48c15.175,7.575 10.491,7.266 15.181,7.46c4.688,0.193 10.632,-1.097 15.129,1.087" style="fill:none;stroke:#000;stroke-width:3px;"/></g><g><path d="M321.631,1116.4c15.175,7.575 10.491,7.269 15.181,7.462c4.688,0.194 10.632,-1.1 15.129,1.088" style="fill:none;stroke:#000;stroke-width:3px;"/></g><g><path d="M396.491,1079.01c-6.572,-15.725 -3.222,-12.4 -6.65,-15.644c-3.428,-3.243 -8.769,-6.2 -10.76,-10.815" style="fill:none;stroke:#000;stroke-width:3px;"/></g><g><path d="M367.45,1112.49c-6.572,-15.729 -3.222,-12.4 -6.65,-15.647c-3.425,-3.244 -8.769,-6.197 -10.756,-10.813" style="fill:none;stroke:#000;stroke-width:3px;"/></g><g><path d="M337.869,1141.17c-6.572,-15.725 -3.222,-12.4 -6.65,-15.644c-3.428,-3.244 -8.769,-6.2 -10.756,-10.816" style="fill:none;stroke:#000;stroke-width:3px;"/></g></g><g><path d="M319.859,1044.75c6.141,15.903 2.885,12.484 6.222,15.822c3.338,3.34 8.597,6.44 10.46,11.109" style="fill:none;stroke:#000;stroke-width:3px;"/></g><g><path d="M348.644,1012.34c6.14,15.904 2.881,12.485 6.219,15.822c3.337,3.338 8.6,6.441 10.459,11.11" style="fill:none;stroke:#000;stroke-width:3px;"/></g><g><path d="M293.059,1078.13c6.141,15.9 2.885,12.485 6.222,15.822c3.338,3.338 8.597,6.438 10.46,11.106" style="fill:none;stroke:#000;stroke-width:3px;"/></g><g><path d="M308.159,1103.11c-14.468,-8.875 -9.825,-8.159 -14.481,-8.762c-4.656,-0.606 -10.69,0.159 -14.984,-2.413" style="fill:none;stroke:#000;stroke-width:3px;"/></g><g><path d="M336.381,1071.65c-14.468,-8.875 -9.828,-8.16 -14.484,-8.763c-4.656,-0.606 -10.688,0.16 -14.984,-2.412" style="fill:none;stroke:#000;stroke-width:3px;"/></g><g><path d="M365.484,1040.07c-14.468,-8.875 -9.825,-8.16 -14.481,-8.763c-4.656,-0.606 -10.69,0.16 -14.984,-2.412" style="fill:none;stroke:#000;stroke-width:3px;"/></g></g><g><path d="M463.625,848.993l-1.022,1.453l-0.662,1.412l-1.422,3.11l-0.753,2.146l-0.31,2.663l0.044,2.737l-0.178,2.475l-0.109,3.154l-0.438,2.084l-1.156,3.569l-0.497,2.181l-0.234,2.212l-0.129,2.679l-0.125,2.234l0.119,2.925l-0.359,2.5l-0.238,2.559l0.516,2.594l0.472,2.041l0.862,2.443l1.11,4.004l1.503,3.587l1.403,4.128l2.656,6.031l2.172,5.125l2.622,7.225l3.078,7.769l3.05,9.235l2.697,8.359l2.478,7.306l1.747,6.222l2.581,6.75l-4.003,-6.556l-2.078,-5.46l-2.5,-6.634l-2.763,-8.041l-3.103,-6.446l-1.762,-3.557l-1.503,-4.05l-1.819,-4.543l-1.875,-4.816l-2.494,-5.95l-2.406,-4.578l-1.678,-4.266l-1.769,-3.053l-2.178,-4.053l-1.394,-1.828l-1.472,-1.669l-2.315,-2.328l-1.944,-1.872l-2.672,-1.662l-2.825,-2.604l-2.162,-1.671l-1.838,-1.079l-2.984,-2.509l-2.272,-1.753l-3.141,-2.625l-1.184,-1.909l-1.219,-1.56l-1.906,-1.847l-1.447,-1.184l-2.184,-0.853l-2.247,-0.897l-2.782,-1.15l-1.868,-0.622l-2.21,0.3l-2.69,0.188l-3.072,1.228l-2.597,1.156l-2.872,1.128l-2.331,1.469l-3.616,2.115l-2.544,2.144l-4.19,2.935l-8.803,6.331l-6.916,3.831l-5.028,3l-5.106,3.113l-3.203,2.237l-4.444,3.328l-6.825,3.935l-4.425,3.209l-4.541,3.969l-4.425,3.381l6.488,-8.6l2.297,-2.331l2.062,-1.594l2.566,-1.663l2.85,-1.709l2.29,-2.091l3.653,-2.246l5.263,-3.157l3.337,-2.475l1.963,-1.787l2.247,-1.725l3,-2.372l3.903,-2.597l4.428,-3.441l3.263,-2.003l3.562,-2.528l4.5,-3.225l4.528,-3.084l4.141,-3.391l3.697,-1.594l3.109,-2.296l2.997,-0.854l2.309,-0.109l2.257,0.375l1.803,0.163l2.25,-0.263l1.925,-0.769l3.225,-1.393l3.697,-1.463l2.371,-1.234l4.157,-1.938l3.4,-1.359l2.912,-0.616l3.46,-1.394l3.843,-1.675l3.141,-2.068l3.594,-2.41l2.85,-1.325l3.606,-1.103l3.534,-0.684l4.244,-1.45l5.438,-0.378l8.156,-1.935l4.915,-0.756l4.438,-0.216l3.987,-0.112l5.55,0.044l5.438,0.487l4.631,0.941l5.225,0.937l5.978,1.388l4.169,0.919l5.609,1.44l5.391,1.853l3.072,0.95l-14.922,-2.053l-5.606,-1.575l-7.222,-1.234l-4.681,-0.01l-4.679,0.179l-4.087,0.343l-6.55,-0.178l-4.578,0.466l-4.86,0.562l-5.718,1.603l-4.028,0.279l-3.029,0.709l-2.834,0.709l-1.819,0.566l-1.959,1.266Z" style="fill:none;stroke:#000;stroke-width:2.78px;"/></g><g><g><g><g><path d="M1751.58,1089.44l15.891,-14.463l25.793,34.306l-12.24,11.385l-29.444,-31.228Z" style="fill:#fff;stroke:#000;stroke-width:1.09px;"/></g><g><path d="M1771.2,1100.99c-8.231,-8.643 -16.984,-13.759 -19.534,-11.415c-2.55,2.344 2.065,11.265 10.297,19.909c8.231,8.644 16.981,13.76 19.531,11.416c2.55,-2.344 -2.063,-11.266 -10.294,-19.91Z" style="fill:#fff;stroke:#000;stroke-width:1.13px;"/></g><g><path d="M1787.26,1087.64c-6.869,-9.76 -15.572,-15.557 -19.425,-12.938c-3.857,2.619 -1.413,12.669 5.456,22.428c6.865,9.756 15.569,15.553 19.425,12.935c3.853,-2.619 1.409,-12.666 -5.456,-22.425Z" style="fill:#fff;stroke:#000;stroke-width:1.13px;"/></g></g></g></g><g><g><g><g><path d="M1626.86,1126.48l-1.053,-21.409l42.997,2.109l0.997,16.647l-42.941,2.653Z" style="fill:#fff;stroke:#000;stroke-width:1.09px;"/></g><g><path d="M1648.29,1118.79c-11.938,0.796 -21.478,4.243 -21.291,7.693c0.185,3.45 10.028,5.603 21.969,4.81c11.937,-0.797 21.478,-4.244 21.291,-7.694c-0.188,-3.45 -10.032,-5.603 -21.969,-4.809Z" style="fill:#fff;stroke:#000;stroke-width:1.13px;"/></g><g><path d="M1648.23,1097.95c-11.928,-0.963 -21.965,2.012 -22.4,6.637c-0.431,4.629 8.9,9.163 20.832,10.125c11.928,0.963 21.965,-2.012 22.4,-6.64c0.431,-4.625 -8.9,-9.16 -20.832,-10.122Z" style="fill:#fff;stroke:#000;stroke-width:1.13px;"/></g></g></g></g><g><g><g><g><path d="M1708.61,1103.43l-17.334,-12.715l28.812,-31.838l13.591,9.75l-25.069,34.803Z" style="fill:#fff;stroke:#000;stroke-width:1.09px;"/></g><g><path d="M1716.2,1082.03c-6.925,9.713 -10.269,19.25 -7.466,21.288c2.804,2.034 10.704,-4.2 17.629,-13.913c6.921,-9.712 10.268,-19.253 7.465,-21.287c-2.806,-2.035 -10.703,4.196 -17.628,13.912Z" style="fill:#fff;stroke:#000;stroke-width:1.13px;"/></g><g><path d="M1699.92,1068.91c-8.288,8.594 -12.313,18.219 -8.988,21.475c3.328,3.26 12.76,-1.075 21.047,-9.672c8.288,-8.596 12.313,-18.221 8.985,-21.478c-3.329,-3.256 -12.757,1.078 -21.044,9.675Z" style="fill:#fff;stroke:#000;stroke-width:1.13px;"/></g></g></g></g></g></svg>