<?xml version="1.0" encoding="UTF-8" standalone="no"?><!DOCTYPE svg PUBLIC "-//W3C//DTD SVG 1.1//EN" "http://www.w3.org/Graphics/SVG/1.1/DTD/svg11.dtd"><svg width="100%" height="100%" viewBox="0 0 2134 2134" version="1.1" xmlns="http://www.w3.org/2000/svg" xmlns:xlink="http://www.w3.org/1999/xlink" xml:space="preserve" xmlns:serif="http://www.serif.com/" style="fill-rule:evenodd;clip-rule:evenodd;stroke-linejoin:round;stroke-miterlimit:2;"><clipPath id="_clip1"><rect id="image.svg" x="637.5" y="275.926" width="988.426" height="790.741"/></clipPath><g clip-path="url(#_clip1)"><path d="M1244.15,277.779c-26.255,-7.567 -53.591,7.722 -61.158,33.977l-197.686,691.899c-7.567,26.255 7.722,53.591 33.978,61.158c26.255,7.568 53.591,-7.722 61.158,-33.977l197.686,-691.898c7.567,-26.255 -7.723,-53.591 -33.978,-61.159Zm124.48,185.485c-19.305,19.305 -19.305,50.656 0,69.962l137.917,138.07l-138.071,138.071c-19.305,19.305 -19.305,50.657 -0,69.962c19.305,19.305 50.657,19.305 69.962,0l172.974,-172.974c19.306,-19.306 19.306,-50.657 0,-69.962l-172.974,-172.975c-19.305,-19.305 -50.657,-19.305 -69.962,-0l0.154,-0.154Zm-473.672,-0c-19.305,-19.306 -50.657,-19.306 -69.962,-0l-172.974,172.974c-19.306,19.305 -19.306,50.657 -0,69.962l172.974,172.975c19.305,19.305 50.657,19.305 69.962,-0c19.305,-19.306 19.305,-50.657 0,-69.962l-138.071,-137.917l138.071,-138.07c19.305,-19.306 19.305,-50.657 0,-69.962Z" style="fill-rule:nonzero;"/></g><clipPath id="_clip2"><rect id="ship-solid.svg" x="1066.67" y="1204.63" width="795.833" height="707.407"/></clipPath><g clip-path="url(#_clip2)"><path d="M1331.94,1248.84c0,-24.456 19.758,-44.213 44.213,-44.213l176.852,-0c24.456,-0 44.213,19.757 44.213,44.213l0,44.213l66.32,-0c36.614,-0 66.319,29.705 66.319,66.319l0,176.852l61.346,20.448c31.916,10.639 40.758,51.812 15.889,74.472l-139.548,127.941c-22.382,12.987 -47.943,20.863 -70.326,20.863c-27.08,-0 -56.371,-10.639 -81.794,-28.048c-30.534,-21.415 -71.293,-21.415 -101.828,0c-23.626,16.304 -52.503,28.048 -81.794,28.048c-22.383,-0 -47.943,-7.876 -70.326,-20.863l-139.547,-127.941c-24.87,-22.798 -16.027,-63.833 15.889,-74.472l61.484,-20.448l-0,-176.852c-0,-36.614 29.705,-66.319 66.319,-66.319l66.319,-0l0,-44.213Zm-44.213,257.955l148.943,-49.602c18.1,-6.079 37.719,-6.079 55.957,0l148.804,49.602l0,-125.317l-353.704,0l0,125.317Zm202.413,280.752c31.087,21.416 69.083,36.061 107.078,36.061c37.167,0 76.544,-14.922 106.94,-36.061c16.442,-11.744 38.825,-10.777 54.161,2.349c19.896,16.441 44.904,29.014 69.912,34.817c23.764,5.527 38.548,29.292 33.022,53.056c-5.527,23.764 -29.292,38.548 -53.056,33.022c-33.851,-7.876 -62.036,-22.798 -80.412,-34.542c-40.068,21.554 -84.972,35.785 -130.567,35.785c-44.075,0 -83.728,-13.678 -111.085,-26.113c-8.013,-3.731 -15.336,-7.323 -21.554,-10.639c-6.217,3.316 -13.402,7.046 -21.553,10.639c-27.357,12.435 -67.011,26.113 -111.086,26.113c-45.594,0 -90.498,-14.231 -130.566,-35.647c-18.514,11.606 -46.562,26.666 -80.412,34.542c-23.765,5.526 -47.529,-9.257 -53.056,-33.022c-5.526,-23.764 9.257,-47.529 33.022,-53.055c25.008,-5.803 50.016,-18.376 69.911,-34.818c15.337,-12.988 37.72,-13.955 54.161,-2.349c30.535,21.001 69.774,35.923 106.94,35.923c37.996,0 75.991,-14.645 107.079,-36.061c15.336,-10.915 35.785,-10.915 51.121,-0Z" style="fill-rule:nonzero;"/></g><clipPath id="_clip3"><rect id="vial-solid.svg" x="283.333" y="1040.74" width="517.593" height="517.593"/></clipPath><g clip-path="url(#_clip3)"><path d="M629.676,1050.24c-12.637,-12.636 -33.159,-12.636 -45.795,0c-12.637,12.637 -12.637,33.159 -0,45.795l9.502,9.503l-281.643,281.542c-18.196,18.197 -28.407,42.863 -28.407,68.642l0,5.56c0,53.579 43.47,97.048 97.049,97.048l5.56,0c25.779,0 50.445,-10.21 68.642,-28.407l281.643,-281.643l9.503,9.503c12.636,12.636 33.158,12.636 45.794,-0c12.637,-12.637 12.637,-33.158 0,-45.795l-161.747,-161.748l-0.101,0Zm-138.8,249.294l148.302,-148.302l51.254,51.253l-97.049,97.049l-102.507,0Z" style="fill-rule:nonzero;"/></g></svg>